<svg xmlns="http://www.w3.org/2000/svg" viewBox="0 0 340.365 132.273">
  <circle fill="#FFF" cx="66.136" cy="66.137" r="62.228"/>
  <path fill="#F19330" d="M66.136 0C29.611 0 0 29.611 0 66.138c0 36.524 29.611 66.135 66.136 66.135 36.526 0 66.137-29.609 66.137-66.135C132.273 29.611 102.662 0 66.136 0zm0 127.748c-34.025 0-61.61-27.584-61.61-61.608 0-34.027 27.584-61.611 61.61-61.611 34.026 0 61.61 27.584 61.61 61.611.001 34.024-27.584 61.608-61.61 61.608z"/>
  <path fill="#FFF" d="M83.281 89.084L70.462 66.217c-.194-.345-.058-.763.302-.929l11.265-5.185c.36-.166.377-.47.038-.673L51.626 41.093c-.339-.203-.61-.048-.601.35l.767 35.13c.009.396.282.535.606.308l9.433-6.565c.325-.229.75-.129.943.215l12.819 22.867c.194.345.635.47.98.273l6.433-3.604c.345-.197.469-.637.275-.983z"/>
  <path fill="#F29B40" d="M93.847 60.666L46.24 31.723c-.338-.206-.614-.052-.613.346l.206 55.515c.001.396.257.521.567.273l13.252-10.475c.311-.244.724-.162.917.184l13.216 23.574c.194.344.635.469.98.273l15.791-8.853c.345-.193.469-.638.276-.98L77.616 68.01c-.193-.345-.048-.738.323-.877l15.848-5.844c.371-.137.399-.417.06-.623zm-11.818-.562l-11.265 5.185c-.36.166-.496.584-.302.929l12.819 22.867c.194.348.069.786-.276.979l-6.433 3.604c-.345.194-.786.069-.98-.274L62.773 70.529c-.193-.345-.618-.443-.943-.216l-9.433 6.565c-.325.229-.598.088-.606-.309l-.767-35.129c-.009-.396.262-.553.601-.35l30.441 18.34c.34.205.323.508-.037.674z"/>
  <path d="M182.462 76.184c-3.838 6.662-9.52 9.99-17.042 9.99-5.584 0-10.383-1.877-14.396-5.632-4.014-3.755-6.021-8.382-6.021-13.88 0-5.614 1.929-10.423 5.788-14.43 3.858-4.007 8.56-6.011 14.105-6.011 3.8 0 7.085.696 9.858 2.091 2.771 1.393 5.205 3.618 7.302 6.675l-4.883 3.019c-1.551-2.656-2.867-4.429-3.951-5.314-1.666-1.386-3.952-2.08-6.854-2.08-3.062 0-5.521 1.564-7.38 4.697-1.705 2.859-2.557 6.319-2.557 10.38 0 4.06.833 7.54 2.499 10.438 1.858 3.287 4.416 5.104 7.67 5.451.271.038.64.058 1.105.058 2.4 0 4.667-.928 6.798-2.783 1.354-1.16 2.711-2.807 4.065-4.936l3.894 2.267zm27.993 9.311h-24.681V46.374h10.976v33.749h13.705v5.372zm15.066 0h-11.735V46.374h11.735v39.121zm41.035-9.311c-3.842 6.662-9.521 9.99-17.046 9.99-5.583 0-10.384-1.877-14.396-5.632-4.014-3.755-6.021-8.382-6.021-13.88 0-5.614 1.93-10.423 5.788-14.43 3.854-4.007 8.562-6.011 14.104-6.011 3.802 0 7.086.696 9.856 2.091 2.771 1.393 5.205 3.618 7.302 6.675l-4.881 3.019c-1.552-2.656-2.867-4.429-3.951-5.314-1.666-1.386-3.951-2.08-6.855-2.08-3.062 0-5.521 1.564-7.381 4.697-1.704 2.859-2.557 6.319-2.557 10.38 0 4.06.832 7.54 2.498 10.438 1.856 3.287 4.416 5.104 7.672 5.451.271.038.639.058 1.104.058 2.398 0 4.668-.928 6.799-2.783 1.354-1.16 2.711-2.807 4.067-4.936l3.898 2.267zm14.813-29.962v39.424h-11.502V46.222h11.502zm23.655 39.424h-11.449l-11.45-18.981 11.688-20.222 5.41.006-8.847 14.403 14.648 24.794zm35.341-39.424l-11.503 18.989v20.281h-11.428v-18.53l-11.955-20.739h12.149l8.504 13.997 8.062-14.04 6.171.042z" fill="#608AC4"/>
  <path fill="#F9C692" d="M116.431 49.938s-3.93-2.551-3.875-2.417c0 0-19.892-13.066-53.655 20.896-.006.006-.011.013-.017.02-12.065-12.724-18.05-18.852-25.304-17.503-8.686 1.615-17.477 12.26-17.477 12.26.031-.468-2.921 2.792-2.921 3.314 0 29.245 23.708 52.955 52.954 52.955 29.246 0 52.955-23.709 52.955-52.955 0-5.789-.943-11.356-2.66-16.57z"/>
  <path fill="#F8BE83" d="M66.136 11.932c-29.936 0-54.204 24.268-54.204 54.206 0 29.936 24.268 54.203 54.204 54.203s54.205-24.269 54.205-54.203c0-29.938-24.269-54.206-54.205-54.206zm0 2.88c21.441 0 39.79 13.154 47.468 31.83-3.164-1.688-22.879-10.117-54.461 21.652-.006.006-.011.014-.017.02-12.351-13.023-18.477-19.297-25.903-17.916-8.891 1.653-17.889 12.549-17.889 12.549.013-.204.053-.399.069-.604l-.43.604c1.654-26.853 23.894-48.135 51.163-48.135zm0 102.651c-27.417 0-49.747-21.515-51.186-48.57 5.929-8.411 11.239-14.219 19.199-15.519 6.892-1.125 12.682 5.959 25.382 19.735.006-.008.011-.014.017-.021 32.727-35.629 51.964-24.631 55.691-21.886 1.436 4.728 2.223 9.737 2.223 14.934-.001 28.348-22.98 51.327-51.326 51.327z"/>
</svg>
