<svg height="30" viewBox="0 0 120 30" width="120" xmlns="http://www.w3.org/2000/svg"><g fill="none" fill-rule="evenodd" transform="translate(5 4)"><path d="m13.1268554 7.875v.00005238h5.1680919c.7114327 0 1.3557144.29687161 1.8300527.77554303-1.064262-.49071808-3.376717.16776284-5.666722 1.69784579-2.2161339 1.4797489-3.722876 3.317336-3.825519 4.5265588-.0840757-.2682215-.132759-.552837-.132759-.8477706v-3.4183184c0-1.5102322 1.1760144-2.733911 2.6268554-2.733911zm7.6726248 1.75c.1287171.31484082.20047.6572385.2005198 1.0181772v3.3243442c0 1.4675932-1.175533 2.6574786-2.6250815 2.6574786h-5.1696961c-.7120519 0-1.3569319-.287233-1.8302224-.7526942 1.094369.4146262 3.3536152-.2272803 5.5932923-1.6809678 2.3221358-1.5066618 3.8646992-3.3961652 3.8311879-4.566338zm-10.2990387 8.574637v-.0000491h7.1354242 3.3641343v2.8004121h-10.4995585c-5.80122965 0-10.5004415-4.6993216-10.5004415-10.499166 0-5.80008975 4.69921185-10.500834 10.5004415-10.500834 4.0287789 0 7.5254595 2.26933158 9.2857937 5.60106942h-3.3465236c-1.4112107-1.7106816-3.5491203-2.80100074-5.9392701-2.80100074-4.25389169 0-7.70004579 3.44893268-7.70004579 7.70081432 0 4.2516854 3.4461541 7.698754 7.70004579 7.698754z" fill="#fff"/><path d="m13.1268554 7.875v.00005238h5.1680919c.7114327 0 1.3557144.29687161 1.8300527.77554303-1.064262-.49071808-3.376717.16776284-5.666722 1.69784579-2.2161339 1.4797489-3.722876 3.317336-3.825519 4.5265588-.0840757-.2682215-.132759-.552837-.132759-.8477706v-3.4183184c0-1.5102322 1.1760144-2.733911 2.6268554-2.733911zm7.6726248 1.75c.1287171.31484082.20047.6572385.2005198 1.0181772v3.3243442c0 1.4675932-1.175533 2.6574786-2.6250815 2.6574786h-5.1696961c-.7120519 0-1.3569319-.287233-1.8302224-.7526942 1.094369.4146262 3.3536152-.2272803 5.5932923-1.6809678 2.3221358-1.5066618 3.8646992-3.3961652 3.8311879-4.566338zm-10.2990387 8.574637v-.0000491h7.1354242 3.3641343v2.8004121h-10.4995585c-5.80122965 0-10.5004415-4.6993216-10.5004415-10.499166 0-5.80008975 4.69921185-10.500834 10.5004415-10.500834 4.0287789 0 7.5254595 2.26933158 9.2857937 5.60106942h-3.3465236c-1.4112107-1.7106816-3.5491203-2.80100074-5.9392701-2.80100074-4.25389169 0-7.70004579 3.44893268-7.70004579 7.70081432 0 4.2516854 3.4461541 7.698754 7.70004579 7.698754z" fill="#01101b"/><path d="m37.9251955 10.1719398v5.9764737c-.7536316.2804211 0 0 0 0-.7536316.2804211-2.2258421.666-3.8032105.666-1.998 0-3.5052632-.5082631-4.6269474-1.5773684-1.051579-.999-1.665-2.5588421-1.6474737-4.3465263 0-3.73310527 2.664-6.13421053 6.5723684-6.13421053 1.4546842 0 2.5938948.29794737 3.1372106.56084211l-.4732106 1.73510526c-.6484737-.28042105-1.4371579-.50826316-2.6815263-.50826316-2.5237895 0-4.2939474 1.48973684-4.2939474 4.24136842 0 2.6815263 1.6474737 4.2764211 4.1011579 4.2764211.7711579 0 1.3495264-.1051579 1.6299474-.2453685v-2.944421h-2.0856316v-1.7000527zm6.0657744-2.20831574c2.5413158 0 4.2413684 1.78768421 4.2413684 4.38157894 0 3.1372105-2.2083157 4.5393158-4.3815789 4.5393158-2.4186316 0-4.2764211-1.665-4.2764211-4.3991053 0-2.80421049 1.8402632-4.52178944 4.4166316-4.52178944zm-.0525789 1.57736842c-1.5247895 0 0 0 0 0-1.5247895 0-2.1382105 1.47221052-2.1382105 2.89184212 0 1.6474737.8062105 2.8918421 2.1206842 2.8918421 1.2268421 0 2.0856315-1.2093158 2.0856315-2.9268947 0-1.332-.5958947-2.85678952-2.0681052-2.85678952zm5.5925639 6.58989472.4732105-1.7876842c.7010526.4031053 0 0 0 0 .7010526.4031053 1.7526316.7536316 2.8567895.7536316 1.3845789 0 2.1557368-.6484737 2.1557368-1.6124211 0-.8938421-.5958947-1.4196315-2.1031579-1.9629473-1.945421-.7010527-3.1897894-1.7351053-3.1897894-3.43515793 0-1.92789474 1.612421-3.40010526 4.1712631-3.40010526 1.2794211 0 2.2258421.28042105 2.8392632.59589473l-.5257895 1.73510527c-.4206316-.22784211-1.2443684-.56084211-2.3485263-.56084211-1.3670526 0-1.9629474.73610527-1.9629474 1.41963158 0 .91136842.6835263 1.332 2.2608948 1.94542105 2.0505789.77115787 3.0495789 1.80521057 3.0495789 3.50526317 0 1.8928421-1.4371579 3.5403158-4.4867368 3.5403158-1.2443685 0-2.5413158-.3505263-3.1897895-.7361053zm15.3196692 4.0310526v-4.6444736h-.0350527c-.5082631.8237368-1.4021052 1.3670526-2.6464737 1.3670526-1.9103684 0-3.5753684-1.665-3.5753684-4.329 0-3.11968421 1.998-4.59189474 3.8207369-4.59189474 1.1917894 0 2.0330526.50826316 2.4887368 1.31447368l.0350526.01752632.052579-1.13921053h2.0856316c-.0350527.7711579-.0701053 1.57736842-.0701053 2.47121057v9.5343157zm0-7.0631052v-1.4196316c0-.1752632 0 0 0 0 0-.1752632-.0175264-.3680526-.052579-.5257895-.1927895-.8062105-.8763158-1.48973681-1.8402631-1.48973681-1.384579 0-2.1732632 1.17426311-2.1732632 2.78668421 0 1.5598421.7536316 2.7341053 2.1206842 2.7341053.8763158 0 1.5948947-.5608421 1.8402632-1.4196316.0701052-.2103158.1051579-.4556842.1051579-.666zm11.9020376-4.94242107v5.97647367c0 1.0165263.0350526 1.8577895.0701052 2.5588421h-1.8928421l-.1051579-1.2969473h-.0350526c-.3680526.613421-1.2093158 1.4897368-2.7341053 1.4897368-1.5598421 0-2.9794737-.9288947-2.9794737-3.715579v-5.01252627h2.1557369v4.64447367c0 1.4196316.4556842 2.331 1.5948947 2.331.8587895 0 1.4196316-.613421 1.6474737-1.1567368.0701053-.1927895.1226842-.4206316.1226842-.666v-5.15273687zm8.8699849 8.53531577h-1.945421l-.1402106-.946421h-.0525789c-.5257895.666-1.4196316 1.1392105-2.5237895 1.1392105-1.7175789 0-2.6815263-1.2443684-2.6815263-2.5413158 0-2.1557368 1.9103684-3.2423684 5.0651053-3.2248421v-.1402105c0-.5608421-.2278421-1.48973687-1.7351053-1.48973687-.8412632 0-1.7175789.26289474-2.2959474.63094737l-.4206315-1.40210526c.6309473-.38557895 1.7351052-.75363158 3.0846315-.75363158 2.7341053 0 3.5227895 1.73510526 3.5227895 3.59289474v3.0846316c0 .7711579.0350526 1.5247894.1226842 2.0505789zm-2.2258421-2.997v-1.1742631c-1.5247895-.0350527 0 0 0 0-1.5247895-.0350527-2.9794737.2979473-2.9794737 1.5948947 0 .8412632.5433158 1.2268421 1.2268421 1.2268421.8587895 0 1.4897369-.5608421 1.6825263-1.1742632.052579-.1577368.0701053-.333.0701053-.4732105zm4.1729323 2.997v-5.7836842c0-1.15673683 0 0 0 0 0-1.15673683-.0175263-1.98047367-.0701052-2.75163157h1.8753158l.0701052 1.62994737h.0701053c.4206316-1.20931579 1.4196316-1.82273684 2.331-1.82273684.2103158 0 .333.01752632.5082632.05257895v2.03305259c-.1752632-.0350526-.3680527-.07010522-.6309474-.07010522-1.0340526 0-1.7351053.66600002-1.9278948 1.62994732-.0350526.1927895-.0701052.4206316-.0701052.666v4.4166316zm13.1113532-3.663h-5.7135787c.0525789 1.5423158 0 0 0 0 .0525789 1.5423158 1.2618947 2.2083158 2.6289473 2.2083158.999 0 1.717579-.1402105 2.3660527-.3855789l.3154737 1.4897368c-.7361053.2979474-1.7526316.5257895-2.9794737.5257895-2.7691579 0-4.3991053-1.7000527-4.3991053-4.3114737 0-2.3660526 1.4371579-4.59189474 4.1712632-4.59189474 2.7691579 0 3.6805258 2.27842104 3.6805258 4.15373684 0 .4031053-.035052.7185789-.070105.9113684zm-5.7135787-1.5072631h3.7506316c.0175263-.7886842 0 0 0 0 .0175263-.7886842-.333-2.08563161-1.7701579-2.08563161-1.332 0-1.8928421 1.20931581-1.9804737 2.08563161zm13.0237217-7.27342109h2.155737v10.04257899c0 .8763157.035053 1.8227368.070105 2.4011052h-1.927895l-.087631-1.3495263h-.035053c-.508263.9464211-1.542316 1.5423158-2.786684 1.5423158-2.033053 0-3.645474-1.7351053-3.645474-4.3640526-.017526-2.85678951 1.770158-4.55684214 3.820737-4.55684214 1.174263 0 2.015527.49073684 2.401105 1.12168421h.035053zm0 8.74563159v-1.2794211c0-.1752631 0 0 0 0 0-.1752631-.017526-.3855789-.052579-.5608421-.192789-.8412631-.876316-1.52478944-1.857789-1.52478944-1.384579 0-2.155737 1.22684214-2.155737 2.82173684 0 1.5598421.771158 2.6990526 2.13821 2.6990526.876316 0 1.647474-.5958947 1.85779-1.5247894.052579-.1927895.070105-.4031053.070105-.6309474z" fill="#fff"/><path d="m37.9251955 10.1719398v5.9764737c-.7536316.2804211 0 0 0 0-.7536316.2804211-2.2258421.666-3.8032105.666-1.998 0-3.5052632-.5082631-4.6269474-1.5773684-1.051579-.999-1.665-2.5588421-1.6474737-4.3465263 0-3.73310527 2.664-6.13421053 6.5723684-6.13421053 1.4546842 0 2.5938948.29794737 3.1372106.56084211l-.4732106 1.73510526c-.6484737-.28042105-1.4371579-.50826316-2.6815263-.50826316-2.5237895 0-4.2939474 1.48973684-4.2939474 4.24136842 0 2.6815263 1.6474737 4.2764211 4.1011579 4.2764211.7711579 0 1.3495264-.1051579 1.6299474-.2453685v-2.944421h-2.0856316v-1.7000527zm6.0657744-2.20831574c2.5413158 0 4.2413684 1.78768421 4.2413684 4.38157894 0 3.1372105-2.2083157 4.5393158-4.3815789 4.5393158-2.4186316 0-4.2764211-1.665-4.2764211-4.3991053 0-2.80421049 1.8402632-4.52178944 4.4166316-4.52178944zm-.0525789 1.57736842c-1.5247895 0 0 0 0 0-1.5247895 0-2.1382105 1.47221052-2.1382105 2.89184212 0 1.6474737.8062105 2.8918421 2.1206842 2.8918421 1.2268421 0 2.0856315-1.2093158 2.0856315-2.9268947 0-1.332-.5958947-2.85678952-2.0681052-2.85678952zm5.5925639 6.58989472.4732105-1.7876842c.7010526.4031053 0 0 0 0 .7010526.4031053 1.7526316.7536316 2.8567895.7536316 1.3845789 0 2.1557368-.6484737 2.1557368-1.6124211 0-.8938421-.5958947-1.4196315-2.1031579-1.9629473-1.945421-.7010527-3.1897894-1.7351053-3.1897894-3.43515793 0-1.92789474 1.612421-3.40010526 4.1712631-3.40010526 1.2794211 0 2.2258421.28042105 2.8392632.59589473l-.5257895 1.73510527c-.4206316-.22784211-1.2443684-.56084211-2.3485263-.56084211-1.3670526 0-1.9629474.73610527-1.9629474 1.41963158 0 .91136842.6835263 1.332 2.2608948 1.94542105 2.0505789.77115787 3.0495789 1.80521057 3.0495789 3.50526317 0 1.8928421-1.4371579 3.5403158-4.4867368 3.5403158-1.2443685 0-2.5413158-.3505263-3.1897895-.7361053zm15.3196692 4.0310526v-4.6444736h-.0350527c-.5082631.8237368-1.4021052 1.3670526-2.6464737 1.3670526-1.9103684 0-3.5753684-1.665-3.5753684-4.329 0-3.11968421 1.998-4.59189474 3.8207369-4.59189474 1.1917894 0 2.0330526.50826316 2.4887368 1.31447368l.0350526.01752632.052579-1.13921053h2.0856316c-.0350527.7711579-.0701053 1.57736842-.0701053 2.47121057v9.5343157zm0-7.0631052v-1.4196316c0-.1752632 0 0 0 0 0-.1752632-.0175264-.3680526-.052579-.5257895-.1927895-.8062105-.8763158-1.48973681-1.8402631-1.48973681-1.384579 0-2.1732632 1.17426311-2.1732632 2.78668421 0 1.5598421.7536316 2.7341053 2.1206842 2.7341053.8763158 0 1.5948947-.5608421 1.8402632-1.4196316.0701052-.2103158.1051579-.4556842.1051579-.666zm11.9020376-4.94242107v5.97647367c0 1.0165263.0350526 1.8577895.0701052 2.5588421h-1.8928421l-.1051579-1.2969473h-.0350526c-.3680526.613421-1.2093158 1.4897368-2.7341053 1.4897368-1.5598421 0-2.9794737-.9288947-2.9794737-3.715579v-5.01252627h2.1557369v4.64447367c0 1.4196316.4556842 2.331 1.5948947 2.331.8587895 0 1.4196316-.613421 1.6474737-1.1567368.0701053-.1927895.1226842-.4206316.1226842-.666v-5.15273687zm8.8699849 8.53531577h-1.945421l-.1402106-.946421h-.0525789c-.5257895.666-1.4196316 1.1392105-2.5237895 1.1392105-1.7175789 0-2.6815263-1.2443684-2.6815263-2.5413158 0-2.1557368 1.9103684-3.2423684 5.0651053-3.2248421v-.1402105c0-.5608421-.2278421-1.48973687-1.7351053-1.48973687-.8412632 0-1.7175789.26289474-2.2959474.63094737l-.4206315-1.40210526c.6309473-.38557895 1.7351052-.75363158 3.0846315-.75363158 2.7341053 0 3.5227895 1.73510526 3.5227895 3.59289474v3.0846316c0 .7711579.0350526 1.5247894.1226842 2.0505789zm-2.2258421-2.997v-1.1742631c-1.5247895-.0350527 0 0 0 0-1.5247895-.0350527-2.9794737.2979473-2.9794737 1.5948947 0 .8412632.5433158 1.2268421 1.2268421 1.2268421.8587895 0 1.4897369-.5608421 1.6825263-1.1742632.052579-.1577368.0701053-.333.0701053-.4732105zm4.1729323 2.997v-5.7836842c0-1.15673683 0 0 0 0 0-1.15673683-.0175263-1.98047367-.0701052-2.75163157h1.8753158l.0701052 1.62994737h.0701053c.4206316-1.20931579 1.4196316-1.82273684 2.331-1.82273684.2103158 0 .333.01752632.5082632.05257895v2.03305259c-.1752632-.0350526-.3680527-.07010522-.6309474-.07010522-1.0340526 0-1.7351053.66600002-1.9278948 1.62994732-.0350526.1927895-.0701052.4206316-.0701052.666v4.4166316zm13.1113532-3.663h-5.7135787c.0525789 1.5423158 0 0 0 0 .0525789 1.5423158 1.2618947 2.2083158 2.6289473 2.2083158.999 0 1.717579-.1402105 2.3660527-.3855789l.3154737 1.4897368c-.7361053.2979474-1.7526316.5257895-2.9794737.5257895-2.7691579 0-4.3991053-1.7000527-4.3991053-4.3114737 0-2.3660526 1.4371579-4.59189474 4.1712632-4.59189474 2.7691579 0 3.6805258 2.27842104 3.6805258 4.15373684 0 .4031053-.035052.7185789-.070105.9113684zm-5.7135787-1.5072631h3.7506316c.0175263-.7886842 0 0 0 0 .0175263-.7886842-.333-2.08563161-1.7701579-2.08563161-1.332 0-1.8928421 1.20931581-1.9804737 2.08563161zm13.0237217-7.27342109h2.155737v10.04257899c0 .8763157.035053 1.8227368.070105 2.4011052h-1.927895l-.087631-1.3495263h-.035053c-.508263.9464211-1.542316 1.5423158-2.786684 1.5423158-2.033053 0-3.645474-1.7351053-3.645474-4.3640526-.017526-2.85678951 1.770158-4.55684214 3.820737-4.55684214 1.174263 0 2.015527.49073684 2.401105 1.12168421h.035053zm0 8.74563159v-1.2794211c0-.1752631 0 0 0 0 0-.1752631-.017526-.3855789-.052579-.5608421-.192789-.8412631-.876316-1.52478944-1.857789-1.52478944-1.384579 0-2.155737 1.22684214-2.155737 2.82173684 0 1.5598421.771158 2.6990526 2.13821 2.6990526.876316 0 1.647474-.5958947 1.85779-1.5247894.052579-.1927895.070105-.4031053.070105-.6309474z" fill="#01101b"/></g></svg>