<svg xmlns="http://www.w3.org/2000/svg" viewBox="0 0 475 210">
  <path fill="#767677" d="M242.39 75.49h-18.56V81H237c-.65 7.72-7.08 11-13.14 11a14.47 14.47 0 0 1-14.53-14.41v-.25a14.5 14.5 0 0 1 14.55-14.75 14.28 14.28 0 0 1 9.92 4l3.86-4a19.6 19.6 0 0 0-14-5.5 20.23 20.23 0 1 0 .34 40.48c10.83 0 18.76-7.42 18.76-18.39a16.5 16.5 0 0 0-.33-3.65zm15.2-3.98a12.85 12.85 0 0 0-13.07 12.63v.27a13.06 13.06 0 0 0 26.12.15c0-8.61-6.77-13-13-13zm.07 5.13c3.74 0 7.29 3 7.29 7.91s-3.53 7.89-7.31 7.89c-4.15 0-7.42-3.32-7.42-7.93s3.23-7.87 7.44-7.87zM286 71.51a12.85 12.85 0 0 0-13.07 12.63v.27a13.06 13.06 0 0 0 26.12.15c0-8.61-6.77-13-13-13zm.08 5.13c3.74 0 7.29 3 7.29 7.91s-3.53 7.89-7.31 7.89c-4.15 0-7.42-3.32-7.42-7.93s3.23-7.87 7.44-7.87zm27.82-5.11c-7 0-12.48 6.12-12.48 13a12.83 12.83 0 0 0 12.36 13 8.59 8.59 0 0 0 7.13-3.16v2.57c0 4.49-2.72 7.19-6.83 7.19a7.23 7.23 0 0 1-6.66-4.63l-5 2.07c1.77 3.75 5.34 7.66 11.69 7.66 6.95 0 12.27-4.38 12.27-13.56V72.31h-5.47v2.22a9.2 9.2 0 0 0-7-3zm.51 5.08c3.43 0 6.94 2.93 6.94 7.92s-3.51 7.88-7 7.88c-3.73 0-7.19-3-7.19-7.83 0-5 3.6-7.93 7.27-7.93zm36.2-5.11c-6.59 0-12.13 5.24-12.13 13a12.58 12.58 0 0 0 12.76 13 13.19 13.19 0 0 0 10.89-5.71l-4.5-3a7.26 7.26 0 0 1-6.34 3.57 6.69 6.69 0 0 1-6.38-3.94l17.43-7.23-.91-2.11a11.77 11.77 0 0 0-10.81-7.61zm.23 5a5.19 5.19 0 0 1 4.81 2.78L344 84.14c-.5-3.77 3.07-7.64 6.83-7.64zm-20.68 20.26h5.73V58.43h-5.73zm-117.04 25.92v22.06h-3.24v-22.06h-7v-3.09h17.27v3.09h-7zm13.72 4.32a8 8 0 0 1 5.65 1.91 6.81 6.81 0 0 1 2.07 5.25v10.6h-3.09v-2.39h-.14a6.16 6.16 0 0 1-5.34 3 6.94 6.94 0 0 1-4.76-1.69 5.38 5.38 0 0 1-1.91-4.23 5.11 5.11 0 0 1 2-4.23 8.48 8.48 0 0 1 5.39-1.58 9.54 9.54 0 0 1 4.74 1.05v-.74a3.68 3.68 0 0 0-1.33-2.86 4.58 4.58 0 0 0-3.13-1.18 5 5 0 0 0-4.28 2.28l-2.85-1.79a7.92 7.92 0 0 1 6.98-3.4zm-4.18 12.5a2.58 2.58 0 0 0 1.07 2.11 3.94 3.94 0 0 0 2.51.85 5.15 5.15 0 0 0 3.63-1.51 4.73 4.73 0 0 0 1.6-3.54 6.67 6.67 0 0 0-4.23-1.19 5.47 5.47 0 0 0-3.28.95 2.82 2.82 0 0 0-1.3 2.33zm23 13.39a9.63 9.63 0 0 1-2.7-.37 8.76 8.76 0 0 1-2.28-1 7.45 7.45 0 0 1-1.77-1.58 6.66 6.66 0 0 1-1.13-2l3.05-1.27a4.83 4.83 0 0 0 1.83 2.42 5.11 5.11 0 0 0 3 .91 5.35 5.35 0 0 0 4.11-1.58 6.11 6.11 0 0 0 1.47-4.36v-1.65h-.14a6.37 6.37 0 0 1-2.47 2.16 7.41 7.41 0 0 1-3.38.79 7.61 7.61 0 0 1-5.79-2.64 9.52 9.52 0 0 1-2.39-6.53 9.39 9.39 0 0 1 2.39-6.52 7.56 7.56 0 0 1 5.78-2.67 7.4 7.4 0 0 1 3.38.79 6.34 6.34 0 0 1 2.47 2.16h.15v-2.39h3.09V144a8.79 8.79 0 0 1-2.35 6.5 8.58 8.58 0 0 1-6.32 2.39zm.11-10.53a4.94 4.94 0 0 0 3.9-1.72 7.13 7.13 0 0 0 0-9 5 5 0 0 0-3.91-1.75 5 5 0 0 0-3.9 1.76 6.41 6.41 0 0 0-1.58 4.46 6.34 6.34 0 0 0 1.58 4.46 5 5 0 0 0 3.9 1.74zm24 2.38h-3.23v-25.15h3.23l8.74 15.31h.14l8.74-15.31h3.23v25.14h-3.22v-14.92l.14-4.23h-.14l-7.87 13.81h-1.89l-7.86-13.8h-.14l.14 4.23zM301.12 127a8 8 0 0 1 5.65 1.91 6.81 6.81 0 0 1 2.07 5.25v10.6h-3.09v-2.39h-.14a6.16 6.16 0 0 1-5.34 3 6.94 6.94 0 0 1-4.76-1.69 5.38 5.38 0 0 1-1.91-4.23 5.11 5.11 0 0 1 2-4.27 8.48 8.48 0 0 1 5.39-1.58 9.54 9.54 0 0 1 4.73 1v-.74a3.68 3.68 0 0 0-1.33-2.86 4.58 4.58 0 0 0-3.13-1.18 5 5 0 0 0-4.26 2.28l-2.84-1.79a7.87 7.87 0 0 1 6.96-3.31zm-4.2 12.49a2.58 2.58 0 0 0 1.07 2.11 3.94 3.94 0 0 0 2.51.85 5.15 5.15 0 0 0 3.63-1.51 4.73 4.73 0 0 0 1.6-3.54 6.67 6.67 0 0 0-4.23-1.19 5.47 5.47 0 0 0-3.28.95 2.82 2.82 0 0 0-1.29 2.33zm15.58-11.98h3.09v2.39h.14a5.75 5.75 0 0 1 2.26-2.11 6.49 6.49 0 0 1 3.18-.85 6.37 6.37 0 0 1 4.86 1.81 7.17 7.17 0 0 1 1.69 5.14v10.81h-3.23v-10.58q-.11-4.23-4.23-4.23a4 4 0 0 0-3.23 1.56 5.65 5.65 0 0 0-1.3 3.74v9.51h-3.23v-17.2zm25.38-.51a8 8 0 0 1 5.65 1.91 6.81 6.81 0 0 1 2.07 5.25v10.6h-3.09v-2.39h-.14a6.16 6.16 0 0 1-5.34 3 6.94 6.94 0 0 1-4.76-1.69 5.38 5.38 0 0 1-1.91-4.23 5.11 5.11 0 0 1 2-4.23 8.48 8.48 0 0 1 5.39-1.58 9.54 9.54 0 0 1 4.74 1.05v-.74a3.68 3.68 0 0 0-1.33-2.86 4.58 4.58 0 0 0-3.13-1.18 5 5 0 0 0-4.28 2.28l-2.84-1.79a8 8 0 0 1 6.97-3.4zm-4.15 12.49a2.58 2.58 0 0 0 1.07 2.11 3.94 3.94 0 0 0 2.51.85 5.15 5.15 0 0 0 3.63-1.51 4.73 4.73 0 0 0 1.6-3.54 6.67 6.67 0 0 0-4.23-1.19 5.47 5.47 0 0 0-3.31 1 2.82 2.82 0 0 0-1.28 2.25zm22.96 13.4a9.63 9.63 0 0 1-2.7-.37 8.76 8.76 0 0 1-2.3-1 7.45 7.45 0 0 1-1.77-1.58 6.66 6.66 0 0 1-1.13-2l3.05-1.27a4.83 4.83 0 0 0 1.83 2.42 5.11 5.11 0 0 0 3 .91 5.35 5.35 0 0 0 4.11-1.58 6.13 6.13 0 0 0 1.48-4.36v-1.65h-.14a6.37 6.37 0 0 1-2.47 2.16 7.41 7.41 0 0 1-3.38.79 7.61 7.61 0 0 1-5.79-2.63 9.52 9.52 0 0 1-2.38-6.55 9.39 9.39 0 0 1 2.39-6.5 7.56 7.56 0 0 1 5.79-2.67 7.4 7.4 0 0 1 3.38.79 6.34 6.34 0 0 1 2.47 2.16h.14v-2.39h3.09V144a8.79 8.79 0 0 1-2.35 6.5 8.63 8.63 0 0 1-6.32 2.39zm.11-10.53a4.94 4.94 0 0 0 3.9-1.73 7.13 7.13 0 0 0 0-9 5 5 0 0 0-3.9-1.76 5 5 0 0 0-3.9 1.76 6.41 6.41 0 0 0-1.58 4.46 6.34 6.34 0 0 0 1.58 4.46 5 5 0 0 0 3.89 1.76zm20.07 2.91a8.23 8.23 0 0 1-6.25-2.6 9.17 9.17 0 0 1-2.46-6.56 9.34 9.34 0 0 1 2.36-6.53 8.58 8.58 0 0 1 12.19-.13 9.86 9.86 0 0 1 2.28 7v.35h-13.57a5.6 5.6 0 0 0 1.69 4.07 5.44 5.44 0 0 0 8.7-1.54l2.88 1.4a8.57 8.57 0 0 1-3.21 3.4 8.88 8.88 0 0 1-4.61 1.14zM371.71 134h9.85a4.28 4.28 0 0 0-1.45-3 5.1 5.1 0 0 0-3.53-1.18 4.68 4.68 0 0 0-3.14 1.13 5.37 5.37 0 0 0-1.74 3zm19.46 10.74h-3.23v-17.23H391v2.81h.14a4.65 4.65 0 0 1 2-2.33 5.61 5.61 0 0 1 3-1 6.05 6.05 0 0 1 2.39.42l-1 3.14a5.35 5.35 0 0 0-1.89-.25 4.18 4.18 0 0 0-3.18 1.48 4.93 4.93 0 0 0-1.35 3.44v9.49z"/>
  <rect fill="#f1efef" x="76.43" y="59.87" width="98.23" height="87.03" rx="6.98" ry="6.98"/>
  <path fill="#537cbd" d="M76.43 77V66.86a7 7 0 0 1 7-7h84.27a7 7 0 0 1 7 7V77z"/>
  <path fill="#c5c3c4" d="M145.73 83.16h21.77v56.53h-21.77zm-62.15 23.7h56.53v32.83H83.58zm0-23.7h56.53v18.78H83.58z"/>
  <path fill="#dd452f" d="M138.15 114.4h39.31a4.75 4.75 0 0 0 4.75-4.75V78.76a4.75 4.75 0 0 0-4.75-4.76h-39.23L121.9 91a4.75 4.75 0 0 0 0 6.34z"/>
  <path style="opacity:0.3;" fill="#010101" d="M170.35 146.39a7.14 7.14 0 0 0 4.31-6.48V114.4h-36.5z"/>
  <circle fill="#e5e5e4" cx="87.31" cy="68.63" r="3.72"/>
  <circle fill="#e5e5e4" cx="98.2" cy="68.63" r="3.72"/>
</svg>
