<svg xmlns="http://www.w3.org/2000/svg" xmlns:xlink="http://www.w3.org/1999/xlink" data-name="Layer 1" viewBox="0 0 838 384"><defs/><defs><linearGradient id="a" x1="241.3617" x2="189.4761" y1="43.3926" y2="43.3926" gradientTransform="matrix(1 .0072 .0072 -1 2.9765 258.152)" gradientUnits="userSpaceOnUse"><stop offset="0" stop-color="#d4a92a"/><stop offset=".5032" stop-color="#f79520"/><stop offset=".9913" stop-color="#f68a28"/><stop offset="1" stop-color="#f68a28"/></linearGradient><linearGradient id="b" x1="183.6547" x2="98.6992" y1="149.9326" y2="149.9326" xlink:href="#a"/><linearGradient id="c" x1="412.7109" x2="130.5379" y1="153.8681" y2="153.8681" xlink:href="#a"/><linearGradient id="d" x1="33.4517" x2="99.357" y1="-23.5422" y2="90.6091" gradientTransform="matrix(1 0 0 -1 0 258)" gradientUnits="userSpaceOnUse"><stop offset=".2509" stop-color="#00bbcb"/><stop offset="1" stop-color="#f79520"/></linearGradient></defs><circle cx="256.0076" cy="128.0033" r="256.0057" fill="none"/><path fill="url(#a)" d="M244.9 181.3c-7.6 3.3-14 6.2-20.3 9-8.8 3.9-31.3 14.4-31.3 14.4a73.4833 73.4833 0 00-.4 8.7c.2 13.3-.2 23.1-.3 37.9 11.9-5.6 42.2-18.6 42.2-18.6"/><path fill="url(#b)" d="M187.8 96c-6.1 5.6-11.3 10.3-16.4 15-7.1 6.5-25.8 22.8-25.8 22.8s-4.2-1.4-8.1-3.1c-12.1-5.5-21.2-9.2-34.8-15.1 10-8.6 34.1-31 34.1-31"/><path fill="url(#c)" d="M358.8 110.4C391.1 83.6 407 48.1 417.5 7.6c-8.9-.8-16.8-1.5-24.6-2.1-30.8-2.5-61 1-89.2 13.3-16.9 7.4-32.6 18.1-47.3 29.3-17.6 13.4-33.7 28.8-50.3 43.5q-35.1 30.9-69.7 62.3a9.0169 9.0169 0 00-2 7.4 100.4621 100.4621 0 0024.1 40.7c6.8 7.1 6.9 6.9 15.9 2.7 33.5-15.6 66.9-31.8 100.8-46.6 29.5-13.1 58.3-26.8 83.6-47.7zM292.5 89a22.6488 22.6488 0 016.9-31.9c10.6-6.7 25.4-3.6 32.3 6.8a23.2117 23.2117 0 01-6.5 32.2c-10.3 6.9-25.7 3.5-32.7-7.1z"/><path fill="#5293cf" d="M26.9 13.8a256.0348 256.0348 0 00220.6 370.1C-19.9 280.8 26.6 15.5 26.9 13.8z"/><path fill="url(#d)" d="M137.9 201.9l-12.2-19.3c-65.7 32-111.2 30.5-111.2 30.5s9.3 37.9 53 88.1c-8.2-59.5 70.4-99.3 70.4-99.3z"/></svg>
