<svg xmlns="http://www.w3.org/2000/svg" viewBox="0 0 1594.611 530.85">
  <path fill="#630D0D" d="M1276.885 8.871c14.46-13.87 42.21-11.2 53.01 6.08 7 11.27 8.04 25.02 8.04 37.96.03 89.04-.15 178.08.01 267.12 43.77-45.6 87.23-91.5 130.89-137.2 13.56-14.09 26.68-28.71 41.73-41.26 14.56-12.68 41.18-9.36 49.86 8.72 4.64 9.07 2.67 19.89-3.37 27.79-9.49 14.79-22.35 26.97-35.39 38.57-20.37 18.8-41 37.34-61.21 56.29 40.21 63.85 81.13 127.27 121.31 191.15 5.6 10.21 14.47 20.28 12.59 32.76-.26 14.07-8.85 28.65-23.05 32.31-10.74 2.39-24.42 2.75-32.16-6.46-12.77-14.67-23.14-31.22-33.13-47.85-30.93-50.93-61.99-101.79-92.87-152.75-24.47 21.71-47.69 45.03-71.76 67.27-1.49 1.56-3.85 2.97-3.46 5.46-.02 29.69.04 59.39-.03 89.09-.13 13.12-3.16 27.46-13.42 36.52-13.78 14.25-40.56 13.75-52.43-2.66-7.43-10.66-8.62-24.2-8.63-36.82.01-135.69 0-271.37 0-407.05.25-21.91-2.25-47.43 13.47-65.04z"/>
  <path fill="#FFCD05" d="M14.075 14.071c13.22-8.5 29.66-8.57 44.85-8.58 50.33.04 100.66.03 150.98.17 36.53 1.13 74.9 2.78 107.79 20.51 40.92 21.24 64.1 66.76 66.23 111.74 1.98 34.15-1.85 70.25-19.93 100.03-11.04 18.19-27.23 33.05-45.89 43.2-43.34 23.32-94.01 25.68-142.18 24.94-33.55.03-67.1-.06-100.65.04-.04 57.93-.01 115.86-.01 173.79-.07 13.81-1.62 29.25-11.55 39.78-11.29 12.81-32.01 14.03-46.19 5.6-14.15-8.85-17.41-26.92-17.51-42.38.01-143.66-.06-287.32.04-430.99.66-13.37 2.27-29.33 14.02-37.85zm61.2 39.05c-.06 68.36.02 136.71-.03 205.07 29.22.32 58.45.04 87.68.14 25.4.15 51.14-1.32 75.62-8.56 23.67-6.72 45.8-21.64 57.6-43.65 11.44-21.29 13.42-46.54 10.13-70.15-4.1-27.66-19.7-55.22-45.81-67.35-33.34-15.97-71.39-15.49-107.54-15.54-25.88.03-51.76-.06-77.65.04z"/>
  <path d="M467.425 54.671c16.13-3.54 33.86 2.67 44.22 15.53 11.09 13.17 13.48 32.87 5.82 48.29-7.46 15.98-24.96 26.54-42.59 25.55-18.75-.44-36.15-13.97-41.37-31.94-8.21-24.33 8.7-52.87 33.92-57.43zm-1.09 138.04c13.8-3.02 30.07-.08 38.95 11.78 7.28 9.82 8.75 22.55 9.05 34.43.02 79.33 0 158.66.01 237.99.15 13.14-.63 27.14-7.68 38.63-10.28 16.15-34.28 19.41-49.96 9.7-13.72-8.76-17.32-26.14-17.57-41.32-.11-80.68-.02-161.36-.05-242.04-.96-19.4 5.43-44.47 27.25-49.17z" fill="#F7981D"/>
  <path d="M1133.365 54.731c15.67-3.53 32.95 2.07 43.48 14.23 11.85 13.03 14.72 33.21 7.11 49.08-7.26 15.97-24.5 26.75-42.07 26.03-18.44-.12-35.82-12.95-41.59-30.42-9.29-24.46 7.4-54.09 33.07-58.92zm2.86 137.35c10.9-1.34 23.04.37 31.32 8.19 10.66 9.3 12.55 24.49 13.03 37.82.05 78.28 0 156.55.02 234.82.13 12.21.09 24.83-4.46 36.36-8.23 23.48-43.15 28.63-59.35 10.77-9.55-10.13-11.12-24.92-11.43-38.21-.03-80.57-.03-161.14 0-241.7-1.14-20.09 7.73-45.91 30.87-48.05z" fill="#CA2126"/>
  <path fill="#F16722" d="M567.055 223.001c-2.82-17.65 13.47-34.51 30.9-34.42 9.39-.25 21.02 1.09 26.2 10.11 6.95 12.39 11.04 26.12 15.15 39.64 20.82 71.45 41.67 142.89 62.46 214.34 22-75.82 42.79-152 65.56-227.59 3.72-15.84 14.48-31.81 31.29-35.33 13.82-2.51 30.25-1.88 40.86 8.57 12.37 10.49 15.41 27.08 20.35 41.7 20.6 70.64 40.4 141.53 60.84 212.22 24.53-81.26 47.73-162.94 72.44-244.13 8.12-25.59 46.93-25.58 58.92-3.23 8.26 14.45.81 31.31-3.39 45.86-28.25 81.17-54.78 162.96-83.91 243.82-5.41 18.27-20.18 36.36-40.85 35.92-17.45 2.29-34.95-6.87-42.6-22.76-7.09-14.48-10.85-30.32-15.47-45.7-18.4-62.65-36.71-125.32-55.19-187.94-19.27 67.92-38.4 135.89-57.84 203.76-5.56 15.56-10.06 32.87-22.18 44.75-18.67 13.02-49.2 11.04-62.65-8.75-9.54-13.57-13.95-29.77-19.61-45.14-22.76-67.1-45.38-134.25-68.09-201.36-4.77-14.65-10.77-29.04-13.19-44.34z"/>
</svg>
