<svg xmlns="http://www.w3.org/2000/svg" xmlns:xlink="http://www.w3.org/1999/xlink" width="530.53" height="95.173" viewBox="0 0 530.53 95.173">
  <path fill="#231F20" d="M132.579 56.896l-4.439 12.479c-.06.24-.24.36-.479.36h-4.32c-.36 0-.42-.18-.36-.48 3.42-9.419 9.3-25.618 13.14-36.058.181-.48.3-.9.42-2.521 0-.24.12-.359.301-.359h5.999c.24 0 .3.06.36.3 4.62 12.6 9.42 25.979 14.1 38.698.12.24.06.42-.24.42h-4.68c-.24 0-.36-.12-.48-.3l-4.56-12.54h-14.762zm13.5-4.26c-1.26-3.96-4.979-14.039-6.18-18.119h-.061c-.96 3.78-3.779 11.46-6.06 18.119h12.301zm14.82 2.88c0-8.819 6.479-15.239 15.959-15.239 1.68 0 3.18.12 4.5.601v-13.68c0-.24.12-.36.359-.36h4.44c.3 0 .359.12.359.36v36.778c0 .96.061 2.16.12 2.88 0 .24 0 .36-.3.54-3.42 1.92-7.26 2.939-10.979 2.939-8.579.001-14.458-5.038-14.458-14.819zm20.459-10.379c-1.2-.54-2.82-.78-4.62-.78-6.66 0-10.56 4.5-10.56 10.92 0 7.919 4.8 10.799 9.779 10.799 2.16 0 4.021-.239 5.4-.779v-20.16zm39.66 10.079c0 9.24-5.64 15.119-13.859 15.119-10.02 0-14.039-7.799-14.039-15.059 0-8.7 5.579-15 14.099-15 8.579.001 13.799 6.241 13.799 14.94zm-22.679-.059c0 6.359 3.06 11.22 8.939 11.22 4.26 0 8.52-3 8.52-10.98 0-5.999-2.52-11.219-8.88-11.219-5.1-.001-8.579 4.259-8.579 10.979zm34.139-28.319c.3 0 .42.061.42.36v14.759c2.34-1.079 4.86-1.68 7.5-1.68 8.1 0 12.899 5.82 12.899 13.619 0 10.38-8.04 16.38-16.68 16.38-3.06 0-5.579-.3-8.52-1.26-.24-.061-.359-.3-.359-.54V27.198c0-.24.119-.36.359-.36h4.381zm6.719 17.639c-2.28 0-4.38.42-6.3 1.5v19.739c1.26.359 2.64.479 4.32.479 5.279 0 10.859-3.899 10.859-11.76.001-6.058-3.299-9.958-8.879-9.958zm24.6 11.339c-.12 5.88 3.24 10.2 9.899 10.2 2.34 0 4.98-.36 7.5-1.62.18-.12.3 0 .3.24v3.42c0 .359-.06.479-.24.54-2.159 1.14-4.739 1.68-8.52 1.739-10.379.061-14.159-7.439-14.159-14.879 0-8.64 4.92-15.18 13.319-15.18 8.4 0 11.7 6.66 11.7 11.699 0 2.28-.24 3.301-.48 3.48-.899.3-3.3.359-6.359.359h-12.96zm11.399-3.479c2.94 0 3.42-.18 3.48-.42v-.899c0-2.04-1.38-6.96-7.08-6.96-4.739 0-7.199 3.72-7.739 8.279h11.339zm45.158 4.559l-4.439 12.479c-.06.24-.24.36-.479.36h-4.32c-.36 0-.42-.18-.36-.48 3.42-9.419 9.3-25.618 13.14-36.058.181-.48.3-.9.42-2.521 0-.24.12-.359.301-.359h5.999c.24 0 .3.06.36.3 4.62 12.6 9.42 25.979 14.1 38.698.12.24.06.42-.24.42h-4.68c-.24 0-.36-.12-.48-.3l-4.56-12.54h-14.762zm13.5-4.26c-1.26-3.96-4.979-14.039-6.18-18.119h-.061c-.96 3.78-3.779 11.46-6.06 18.119h12.301zm17.101-5.039c0-2.04-.18-5.4-.239-6.42-.061-.24.06-.36.359-.36h3.84c.301 0 .42.12.54.36.12.54.24 1.92.36 2.939 2.7-2.52 6.06-3.84 9.42-3.84 4.079 0 9.6 2.1 9.6 11.699v17.34c0 .3-.12.42-.42.42h-4.32c-.3 0-.42-.12-.42-.48V51.976c0-4.499-1.86-7.379-6.12-7.379-2.88 0-5.579 1.56-7.499 3.479v21.239c0 .3-.061.42-.36.42h-4.38c-.24 0-.36-.12-.36-.42V47.597zm52.618 16.799c0 1.02 0 1.92.12 2.939 0 .061 0 .181-.12.24-3.84 1.98-7.56 2.76-11.34 2.76-6.359 0-11.459-2.88-11.459-9.299 0-7.021 6-10.02 17.759-9.54v-1.2c0-1.739-.84-5.76-6.539-5.76-2.88 0-5.64.78-8.1 2.16-.181.06-.42 0-.42-.3v-3.42c0-.24.06-.36.3-.48 2.399-1.319 5.88-2.22 9.119-2.22 7.38 0 10.68 4.74 10.68 11.04v13.08zm-5.04-9.3c-9.659-.42-12.659 1.8-12.659 5.82 0 2.819 1.979 5.46 7.319 5.46 1.92 0 3.78-.24 5.34-.841V55.096zm12.961-27.839c0-.3.12-.42.421-.42h4.319c.24 0 .36.18.36.42v36.419c0 2.279.899 2.64 2.1 2.64.36 0 .96-.06 1.44-.12.239-.06.239.061.239.3v2.82c0 .36 0 .42-.3.54-.54.24-1.74.479-3.12.479-2.939 0-5.46-1.14-5.46-6.479V27.257zm15.6 13.56c.24 0 .36.12.42.3 5.52 14.399 7.8 20.22 8.46 22.26h.12c2.88-6.96 5.459-14.7 7.619-22.199.12-.24.24-.36.54-.36h4.14c.36 0 .42.18.36.48-1.979 7.439-6 18.419-10.08 26.759-3.84 7.619-7.199 12.899-9.06 15.179-.3.24-.42.36-.779.36h-4.86c-.3 0-.42-.24-.18-.54 2.819-3.359 7.439-10.499 9.239-14.159.12-.3.181-.48.061-.78-1.2-2.7-9.899-23.639-11.16-26.879-.119-.24 0-.42.24-.42h4.92zm41.039 27.959c0 .3-.061.479-.3.6-1.44.721-3.181.96-4.8.96-4.38 0-7.08-2.159-7.08-7.859v-17.64l-3.96-.06c-.3-.06-.36-.18-.36-.48v-3.06c0-.3.12-.42.421-.42h3.959c.061-2.16.301-6.42.601-7.8.06-.24.12-.359.359-.42l4.2-.899c.24-.061.36 0 .36.239-.24 2.101-.36 5.94-.36 8.88h6.479c.301 0 .36.12.36.42v3.12c0 .3-.12.36-.36.42l-6.539.06v17.1c0 2.76.96 4.32 3.659 4.32.96 0 1.86-.12 3-.601.181-.06.36 0 .36.3v2.82zm4.739-35.999c0-1.739 1.261-2.879 3.061-2.879s2.939 1.199 2.939 2.879c0 1.62-1.2 2.82-3 2.82s-3-1.139-3-2.82zm.421 8.46c0-.3.119-.42.359-.42h4.38c.3 0 .42.061.42.36v28.139c0 .3-.06.42-.42.42h-4.26c-.36 0-.479-.12-.479-.48V41.237zm33.299 27.179c0 .24-.061.36-.24.48-1.98 1.02-4.26 1.439-7.2 1.439-9.839 0-14.099-6.959-14.099-14.939 0-8.699 5.999-15.119 15.119-15.119 3.239 0 5.279.66 6.239 1.141.181.119.24.239.24.539v3.48c0 .3-.18.359-.42.24-1.68-.78-3.42-1.261-5.88-1.261-6.119 0-10.02 4.5-10.02 10.8 0 7.38 4.38 10.8 9.779 10.8 2.641 0 4.44-.48 6.12-1.32.3-.06.36.061.36.24v3.48zm14.339-24.119c-3.9 0-4.92 2.04-4.92 3.66 0 2.04 1.02 3.061 5.939 5.04 5.7 2.28 8.58 4.319 8.58 8.699 0 5.88-4.8 8.64-10.44 8.64-3.359 0-6.6-.899-8.819-2.34-.24-.12-.3-.239-.3-.54v-3.96c0-.3.18-.359.36-.3 2.819 1.86 5.999 3.12 9.119 3.12 3.72 0 5.04-2.04 5.04-3.899 0-2.16-1.44-3.3-6.3-5.28-5.52-2.279-7.979-4.439-7.979-8.76 0-4.68 3.779-8.1 10.14-8.1 3.54 0 5.939.78 7.499 1.68.24.181.301.36.301.601l-.061 3.6c0 .3-.12.42-.42.24-1.98-1.141-4.74-2.101-7.739-2.101zm-230.098 2.131c-2.251 0-4.083-1.832-4.083-4.083s1.832-4.083 4.083-4.083c2.252 0 4.084 1.832 4.084 4.083s-1.832 4.083-4.084 4.083zm0-7.666c-1.976 0-3.583 1.607-3.583 3.583s1.607 3.583 3.583 3.583c1.977 0 3.584-1.607 3.584-3.583s-1.607-3.583-3.584-3.583z"/>
  <path fill="#231F20" d="M289.33 44.617c-.04 0-.054-.014-.054-.054v-4.29c0-.033.007-.054.04-.054.357-.014.722-.021 1.329-.021 1.059 0 1.692.432 1.692 1.269 0 .634-.377 1.012-.924 1.193.169.216 1.214 1.578 1.416 1.882.027.04.021.074-.02.074h-.844c-.054 0-.074-.014-.094-.034-.202-.27-.803-1.146-1.1-1.585-.054-.094-.095-.121-.216-.121h-.485v1.687c0 .04-.014.054-.048.054h-.692zm1.274-2.388c.647 0 .925-.29.925-.715 0-.445-.345-.675-.925-.675-.31 0-.485.007-.532.014v1.376h.532z"/>
  <path opacity=".2" d="M0 0h97.562v95.173H0z"/>
  <path opacity=".2" d="M1.938 0H99.5v95.173H1.938z"/>
  <defs>
    <path id="a" d="M1.938 0h95.625v93.235H1.938z"/>
  </defs>
  <clipPath id="b">
    <use xlink:href="#a" overflow="visible"/>
  </clipPath>
  <radialGradient id="c" cx="-796.1448" cy="307.2627" r=".9689" gradientTransform="matrix(142.3137 0 0 -142.3137 113355.273 43721.03)" gradientUnits="userSpaceOnUse">
    <stop offset="0" stop-color="#FFF"/>
    <stop offset=".22" stop-color="#FFF"/>
    <stop offset="1" stop-color="#D9D9D8"/>
  </radialGradient>
  <path clip-path="url(#b)" fill="url(#c)" d="M1.938 0h95.625v93.235H1.938z"/>
  <path fill-rule="evenodd" clip-rule="evenodd" fill="#80C242" d="M47.902 11.157c-19.366 0-35.063 15.698-35.063 35.063s15.696 35.063 35.063 35.063S82.965 65.585 82.965 46.22 67.268 11.157 47.902 11.157m0 2.578c17.912 0 32.487 14.574 32.487 32.485 0 17.913-14.574 32.485-32.487 32.485S15.416 64.132 15.416 46.219c0-17.91 14.574-32.484 32.486-32.484"/>
  <path fill="#1E311E" d="M39.336 47.016H35.75V70.64c1.1.553 2.411 1.036 3.586 1.434V47.016zm6.773-1.593v27.883c.507.183 1.239.382 1.75.382.638 0 1.251.08 1.824-.051l.012-28.213h-3.586zm20.719 19.846c1.284-1.354 2.598-2.996 3.587-4.594V42.634h-3.587v22.635zM27.259 48.482l8.339-9.586 7.921 2.94 16.89-12.088 8.514 8.037 4.279-3.419-.64-1.366-3.662 2.891-8.32-7.754-17.161 12.258-7.969-3.093-8.885 10.017-5.558 1.302.005 1.28 6.247-1.419zm1.717 5.706H25.39v6.977c1 1.53 2.311 2.952 3.586 4.247V54.188zM60.055 38.25h-3.586v33.701c1.179-.423 2.486-.925 3.586-1.503V38.25z"/>
</svg>
