<svg xmlns="http://www.w3.org/2000/svg" viewBox="0 0 475 210"><title>integration-tile</title><path d="M106.91,87.95a.81.81,0,0,0-.63-.37.93.93,0,0,0-.48.16c-1.78,1.4-4.2,7.3-6.19,15.09l1.76,0L112,103c-.94-3.57-1.82-6.62-2.63-9.09A28.17,28.17,0,0,0,106.91,87.95Z" style="fill:#00a6d1"/><path d="M110.86,72.94a33.34,33.34,0,1,0,33.34,33.34A33.34,33.34,0,0,0,110.86,72.94Zm24,33.94h0l-.11.08,0,0-.08,0-.07,0h0a1.76,1.76,0,0,1-.82.2H117.91c.13.52.27,1.12.41,1.76.87,3.75,3.17,13.68,5.61,13.68h.13c1.91,0,2.88-2.76,5-8.8l0-.07c.34-1,.73-2.07,1.15-3.22l.11-.3h0a.76.76,0,0,1,1.45.49h0l-.09.3c-.22.72-.46,1.7-.73,2.83-1.27,5.27-3.19,13.23-8.12,13.23h0c-3.19,0-5.09-5.12-5.91-7.29-1.52-4.07-2.68-8.4-3.78-12.59H98.59l-3,9.65,0,0a1.53,1.53,0,0,1-2.83-.82V116l.18-1.09c.42-2.48.92-5.06,1.49-7.66H88.23l0,0a2.32,2.32,0,0,1-2-2.29,2.3,2.3,0,0,1,1.89-2.28,5.92,5.92,0,0,1,.72,0h.3l6.27.09c3.2-13,6.92-19.63,11-19.65,4.42,0,7.69,10.06,10.32,19.9v0c5.39.11,11.13.27,16.72.67l.23,0,.27,0h.07a1.77,1.77,0,0,1,.75,3.11Z" style="fill:#00a6d1"/><path d="M162.7,114.62l-2.64,6.53h-7.68L167,87h6.78l14.56,34.1h-7.63L178,114.62Zm7.63-18.95-5,12.42h10.07Z" style="fill:#00a6d1"/><path d="M231.6,108v13.11h-6.93V108.64c0-3.79-1.84-5.83-5.09-5.83a5.48,5.48,0,0,0-4.49,2.64,21.84,21.84,0,0,1,.2,2.59v13.11h-6.92V108.64c0-3.79-1.84-5.83-5.14-5.83-1.35,0-2.84.8-4.24,2.69v15.66h-6.93V97.27H199v1.45a7.74,7.74,0,0,1,5.88-2.19,9.88,9.88,0,0,1,7.63,3.39,11.54,11.54,0,0,1,8.68-3.39C227,96.52,231.6,101.06,231.6,108Z" style="fill:#00a6d1"/><path d="M262.06,109.23a12.13,12.13,0,0,1-18.65,10.52v12.91h-6.93V97.27h6.93v1.4a12.19,12.19,0,0,1,6.78-1.89C256.78,96.77,262.06,102.21,262.06,109.23Zm-6.83,0a6.38,6.38,0,0,0-6.18-6.63,6.66,6.66,0,0,0-5.63,2.79V113a6.73,6.73,0,0,0,5.63,2.74,6.32,6.32,0,0,0,6.18-6.53Z" style="fill:#00a6d1"/><path d="M272.88,121.15H266V85.75h6.93v35.4Z" style="fill:#00a6d1"/><path d="M279.11,88.84a4.16,4.16,0,0,1,8.33,0,4.17,4.17,0,0,1-8.33,0Zm7.67,8.43v23.88h-6.93V97.27Z" style="fill:#00a6d1"/><path d="M312,120.8a18.29,18.29,0,0,1-6.43,1.1c-5.78,0-9.57-4.09-9.57-10.27V103.1h-5V97.27h5V88.74h6.88v8.53h8.63v5.83h-8.63v8.48c0,2.69,1.65,3.94,4.19,3.94a16.59,16.59,0,0,0,4-.65Z" style="fill:#00a6d1"/><path d="M339.79,121.15h-6.93v-1.7A10.59,10.59,0,0,1,326,121.9c-6.28,0-10.47-4.54-10.47-11.47V97.27h6.93v12.51c0,3.79,1.89,5.83,5.14,5.83,1.74,0,3.64-1,5.23-3V97.27h6.93v23.88Z" style="fill:#00a6d1"/><path d="M369.21,121.15h-6.93v-1.4a12.19,12.19,0,0,1-6.78,1.89c-6.58,0-11.92-5.43-11.92-12.46a12.17,12.17,0,0,1,18.7-10.52V85.75h6.93v35.4ZM362.28,113v-7.63a6.73,6.73,0,0,0-5.63-2.74,6.59,6.59,0,0,0,0,13.16,6.65,6.65,0,0,0,5.63-2.79Z" style="fill:#00a6d1"/><path d="M397.33,111h-17.6c.55,2.79,2.39,5,6.18,5q2.92,0,4-1.8h7.23c-1.3,4.59-5.78,7.73-11.42,7.73-7.68,0-12.86-5.53-12.86-12.66,0-7.38,5.14-12.72,12.66-12.72,6.83,0,11.92,4.84,11.92,12.22A14,14,0,0,1,397.33,111Zm-17.55-4.09H390.6c-.4-3-2.19-4.64-5-4.64a5.59,5.59,0,0,0-5.83,4.64Z" style="fill:#00a6d1"/></svg>