<svg version="1" xmlns="http://www.w3.org/2000/svg" viewBox="0 0 152 117.5">
  <g fill="#0078D7">
    <path d="M70.7 73.6h11v3.5h-11zm3.4 11h4.1l3.4-3.7H70.7m.5-30.3c-.9 0-1.8.8-1.8 1.8 0 .9.8 1.8 1.8 1.8H73v-1.8c-.2-1-.9-1.8-1.8-1.8zm9.4 0c-.9 0-1.8.8-1.8 1.8v1.8h1.8c.9 0 1.8-.8 1.8-1.8 0-.9-.7-1.8-1.8-1.8z"/>
    <path d="M92.9 48v-.3c0-8-6.8-14.5-15.2-14.7-.2-.3-5 .1-5 .1-7.6.9-13.5 7.2-13.5 14.5 0 .2-.8 6 5.1 10.9 2.7 2.4 5.5 8.8 5.9 10.6l.3.6h11l.3-.6c.4-1.9 3.3-8.3 5.9-10.6 5.9-4.8 5.2-10.3 5.2-10.5zm-12.2 8.2h-1.8v13.1h-2V56.2H75v13h-2v-13h-1.8c-2 0-3.8-1.8-3.8-3.8 0-2 1.7-3.8 3.8-3.8 2.1 0 3.8 1.8 3.8 3.8v1.8h1.8v-1.8c0-2 1.8-3.8 3.8-3.8s3.8 1.8 3.8 3.8c.1 2.1-1.7 3.8-3.7 3.8z"/>
  </g>
</svg>
