<svg width="371" height="49" viewBox="0 0 371 49" xmlns="http://www.w3.org/2000/svg">
  <g fill="none" fill-rule="evenodd">
    <path d="M126.448 23.58c-2.029 0-3.49.664-4.973 1.339v15.31c1.422.14 2.232.14 3.582.14 4.869 0 5.535-2.229 5.535-5.336v-7.314c.001-2.296-.761-4.139-4.144-4.139zm-32.328-.836c-3.378 0-4.147 1.852-4.147 4.145v1.286h8.292v-1.286c0-2.293-.771-4.145-4.145-4.145zM31.494 38.682c0 1.812.856 2.754 2.748 2.754 2.03 0 3.23-.66 4.712-1.34v-3.63h-4.438c-2.1 0-3.022.389-3.022 2.216zM157.897 23.58c-3.383 0-4.555 1.843-4.555 4.136v8.38c0 2.301 1.172 4.147 4.555 4.147 3.373 0 4.555-1.848 4.555-4.147v-8.38c0-2.293-1.181-4.136-4.555-4.136zM14.914 48.072H4.971V24.035H0V15.75h4.971v-4.973C4.971 4.02 7.776 0 15.746 0h6.637v8.285h-4.146c-3.104 0-3.31 1.158-3.31 3.318l-.013 4.146h7.517l-.88 8.285h-6.637v24.038zm33.988.062h-8.288l-.357-2.094c-3.786 2.094-7.164 2.435-9.391 2.435-6.08 0-9.315-4.056-9.315-9.664 0-6.615 3.775-8.978 10.529-8.978h6.874v-1.43c0-3.379-.388-4.369-5.588-4.369h-8.504l.832-8.285h9.294c11.412 0 13.914 3.602 13.914 12.721v19.664zm28.185-23.491c-5.158-.883-6.639-1.078-9.12-1.078-4.458 0-5.805.984-5.805 4.763v7.151c0 3.78 1.347 4.767 5.805 4.767 2.481 0 3.962-.195 9.12-1.082v8.078c-4.519 1.014-7.461 1.278-9.948 1.278-10.678 0-14.92-5.606-14.92-13.709v-5.804c0-8.106 4.242-13.724 14.92-13.724 2.487 0 5.43.269 9.948 1.282v8.078zm31.121 10.168H89.973v.668c0 3.78 1.348 4.767 5.804 4.767 4.008 0 6.452-.195 11.6-1.082v8.078c-4.964 1.014-7.55 1.278-12.424 1.278-10.678 0-14.924-5.606-14.924-13.709v-6.636c0-7.085 3.152-12.892 14.092-12.892 10.942 0 14.088 5.738 14.088 12.892l-.001 6.636zm32.328.151c0 7.83-2.24 13.541-15.814 13.541-4.898 0-7.777-.432-13.188-1.264V2.487l9.941-1.655v15.653c2.148-.798 4.93-1.202 7.461-1.202 9.945 0 11.6 4.453 11.6 11.605v8.074zm31.869.172c0 6.755-2.793 13.306-14.475 13.306-11.689 0-14.533-6.551-14.533-13.306v-6.52c0-6.757 2.844-13.309 14.533-13.309 11.682 0 14.475 6.552 14.475 13.309v6.52zm31.845 0c0 6.755-2.795 13.306-14.473 13.306-11.69 0-14.536-6.551-14.536-13.306v-6.52c0-6.757 2.846-13.309 14.536-13.309 11.678 0 14.473 6.552 14.473 13.309v6.52zm32.686 12.938h-10.779l-9.113-15.191v15.191H207.1V2.487l9.943-1.655v29.345l9.113-14.427h10.779l-9.951 15.744 9.952 16.578zM189.742 23.58c-3.377 0-4.549 1.843-4.549 4.136v8.38c0 2.301 1.172 4.147 4.549 4.147 3.373 0 4.566-1.848 4.566-4.147v-8.38c.001-2.293-1.193-4.136-4.566-4.136z" fill="#3462A4"/>
    <path d="M292.331 19.158c0 4.4-1.474 7.711-4.422 9.933-2.948 2.222-6.974 3.377-12.078 3.465l-5.742.066V48h-2.772V6.75h9.24c5.236 0 9.174 1.122 11.814 3.366 2.64 2.244 3.96 5.258 3.96 9.042zm-2.904.066c0-3.124-1.122-5.566-3.366-7.326-2.244-1.76-5.412-2.64-9.504-2.64h-6.468v20.856l5.742-.066c4.312-.088 7.656-.957 10.032-2.607 2.376-1.65 3.564-4.389 3.564-8.217zm13.794-10.758c0 .528-.176 1.012-.528 1.452-.352.44-.836.66-1.452.66s-1.089-.22-1.419-.66c-.33-.44-.495-.924-.495-1.452 0-.484.165-.935.495-1.353.33-.418.803-.627 1.419-.627s1.1.209 1.452.627c.352.418.528.869.528 1.353zM299.921 48V17.97l2.706-.858V48h-2.706zm28.842 0l-8.778-13.662L311.141 48h-3.036l10.494-15.576-9.768-14.652h2.97l8.184 12.672 8.184-12.672h2.904l-9.702 14.52L331.865 48h-3.102zm9.24-15.114c0 1.892.253 3.652.759 5.28.506 1.628 1.243 3.036 2.211 4.224.968 1.188 2.145 2.112 3.531 2.772 1.386.66 2.937.99 4.653.99 1.716 0 3.278-.242 4.686-.726s2.662-1.078 3.762-1.782l.594 2.442c-1.188.748-2.563 1.364-4.125 1.848-1.562.484-3.267.726-5.115.726-2.068 0-3.949-.385-5.643-1.155s-3.135-1.848-4.323-3.234c-1.188-1.386-2.112-3.036-2.772-4.95-.66-1.914-.99-4.015-.99-6.303 0-2.288.33-4.4.99-6.336.66-1.936 1.595-3.619 2.805-5.049 1.21-1.43 2.64-2.541 4.29-3.333 1.65-.792 3.465-1.188 5.445-1.188 1.496 0 2.882.242 4.158.726 1.276.484 2.387 1.177 3.333 2.079.946.902 1.683 1.991 2.211 3.267.528 1.276.792 2.728.792 4.356 0 .748-.066 1.562-.198 2.442-.132.88-.286 1.65-.462 2.31l-20.592.132v.462zm18.282-2.904c.132-.748.198-1.496.198-2.244 0-2.376-.693-4.323-2.079-5.841-1.386-1.518-3.289-2.277-5.709-2.277-2.816 0-5.148.957-6.996 2.871-1.848 1.914-3.014 4.411-3.498 7.491h18.084zM367.571 48V3.516l2.706-.858V48h-2.706z" fill="#333"/>
  </g>
</svg>
