<svg xmlns="http://www.w3.org/2000/svg" viewBox="0 0 475 210">
  <defs>
    <linearGradient id="a" y2="95.19" gradientUnits="userSpaceOnUse" x2="178.95" gradientTransform="matrix(1 0 0 -1 0 212)" y1="95.19" x1="161.37">
      <stop stop-opacity=".7" offset="0"/>
      <stop stop-opacity="0" offset="1"/>
    </linearGradient>
    <linearGradient id="b" y2="95.19" gradientUnits="userSpaceOnUse" x2="158" gradientTransform="matrix(1 0 0 -1 0 212)" y1="95.19" x1="156.02">
      <stop stop-opacity=".25" offset="0"/>
      <stop stop-opacity="0" offset=".77"/>
    </linearGradient>
  </defs>
  <path d="M177.22 145.17h-21.88V68.58a6.17 6.17 0 0 1 6.15-6.32h15.73a6.32 6.32 0 0 1 6.32 6.32v70.26a6.32 6.32 0 0 1-6.32 6.32z" fill="#f77e00"/>
  <path d="M177.24 62.77h-15.6c-5.62 0-6.32 5.79-6.32 5.79a6.14 6.14 0 0 1 6.32-6.32h15.6a6.32 6.32 0 0 1 6.32 6.32s-.97-5.79-6.32-5.79z" fill="#f99926"/>
  <path d="M133.27 88.46a6.32 6.32 0 0 0-6.32 6.32v22.07h-19.87a6.37 6.37 0 0 0-6.44 6.29v15.58a6.44 6.44 0 0 0 6.44 6.45h48.26V88.46z" fill="#ffca00"/>
  <path d="M126.94 116.86h-19.86a6.37 6.37 0 0 0-6.44 6.29v.06s.82-5.8 6.44-5.8h19.86z" fill="#ffd235"/>
  <path d="M133.28 89.07h22.06v-.6h-22.07a6.32 6.32 0 0 0-6.32 6.32s.58-5.72 6.33-5.72z" fill="#ffd028"/>
  <path d="M155.34 145.17H107a6.39 6.39 0 0 1-6.4-6.32s1.05 5.79 6.4 5.79h48.3z" fill="#f6ae00"/>
  <path d="M155.34 144.64h21.92c5.62 0 6.32-5.79 6.32-5.79a6.14 6.14 0 0 1-6.32 6.32h-21.92z" fill="#eb6d00"/>
  <path d="M177.22 145.17h-21.88V88.46l28.2 28.4v22a6.32 6.32 0 0 1-6.32 6.32z" style="isolation:isolate" opacity=".1" fill="url(#a)"/>
  <path style="isolation:isolate" opacity=".1" fill="url(#b)" d="M158.53 145.16h-3.19v-56.7l2.99 3.02"/>
  <path d="M254.78 75.72h-18.47v5.48h13.12c-.65 7.7-7.05 11-13.09 11a14.42 14.42 0 0 1-14.49-14.4v-.25a14.45 14.45 0 0 1 14.5-14.7 14.24 14.24 0 0 1 9.89 4l3.84-4a19.54 19.54 0 0 0-13.91-5.48 20.16 20.16 0 1 0 .29 40.32c10.8 0 18.7-7.39 18.7-18.33a16.44 16.44 0 0 0-.33-3.64zM270 71.77a12.81 12.81 0 0 0-13 12.58v.27a13 13 0 0 0 26 .15c0-8.58-6.74-13-13-13zm.07 5.11c3.73 0 7.27 3 7.27 7.88s-3.52 7.86-7.28 7.86c-4.14 0-7.4-3.31-7.4-7.9s3.17-7.85 7.34-7.85zm28.22-5.11a12.81 12.81 0 0 0-13 12.58v.27a13 13 0 0 0 26 .15c0-8.58-6.74-13-13-13zm.08 5.11c3.73 0 7.27 3 7.27 7.88s-3.52 7.86-7.28 7.86c-4.14 0-7.4-3.31-7.4-7.9s3.21-7.85 7.41-7.85zm27.71-5.1c-7 0-12.44 6.1-12.44 12.95A12.78 12.78 0 0 0 326 97.7a8.56 8.56 0 0 0 7.11-3.15v2.56c0 4.47-2.71 7.17-6.81 7.17a7.2 7.2 0 0 1-6.64-4.61l-5 2.06c1.77 3.73 5.32 7.63 11.66 7.63 6.93 0 12.22-4.36 12.22-13.51V72.56h-5.45v2.21a9.16 9.16 0 0 0-7-3zm.51 5.06c3.41 0 6.92 2.92 6.92 7.9s-3.5 7.85-7 7.85c-3.71 0-7.17-3-7.17-7.8 0-5 3.59-7.91 7.25-7.91zm36.07-5.09c-6.57 0-12.09 5.23-12.09 12.94a12.53 12.53 0 0 0 12.72 13A13.15 13.15 0 0 0 374.15 92l-4.48-3a7.23 7.23 0 0 1-6.32 3.56 6.66 6.66 0 0 1-6.35-3.9l17.38-7.21-.9-2.11a11.73 11.73 0 0 0-10.77-7.59zm.23 5a5.18 5.18 0 0 1 4.8 2.77l-11.61 4.85c-.5-3.76 3.06-7.62 6.81-7.62zm-20.6 20.17H348V58.73h-5.71zM218.95 145h-3.59l9.5-25.2h3.66L238 145h-3.59l-2.41-6.86h-10.57zm7.67-21.22l-4.12 11.38h8.38l-4.12-11.38zm13.64 3.94h3.1v2.39h.14a5.76 5.76 0 0 1 2.27-2.11 6.51 6.51 0 0 1 3.19-.84 6.36 6.36 0 0 1 4.87 1.81 7.19 7.19 0 0 1 1.69 5.16V145h-3.24v-10.66q-.11-4.22-4.26-4.22a4.05 4.05 0 0 0-3.24 1.57 5.67 5.67 0 0 0-1.3 3.75V145h-3.24zm25.28-.56a8 8 0 0 1 5.67 1.92 6.82 6.82 0 0 1 2.08 5.26V145h-3.1v-2.39H270a6.18 6.18 0 0 1-5.35 3 7 7 0 0 1-4.77-1.69 5.4 5.4 0 0 1-1.92-4.22 5.13 5.13 0 0 1 2-4.26 8.53 8.53 0 0 1 5.4-1.59 9.56 9.56 0 0 1 4.75 1.05v-.74a3.68 3.68 0 0 0-1.34-2.87 4.59 4.59 0 0 0-3.13-1.18 5 5 0 0 0-4.3 2.29l-2.85-1.8a7.93 7.93 0 0 1 7.05-3.44zm-4.19 12.53a2.58 2.58 0 0 0 1.07 2.11 4 4 0 0 0 2.53.84 5.16 5.16 0 0 0 3.64-1.51 4.74 4.74 0 0 0 1.6-3.55 6.63 6.63 0 0 0-4.22-1.2 5.48 5.48 0 0 0-3.29.95 2.82 2.82 0 0 0-1.34 2.35zM280 119.76V145h-3.24v-25.2zm19.19 7.96l-10.8 24.87H285l4-8.69-7.11-16.16h3.52l5.15 12.37h.07l5-12.39zm8.81 17.53a4.92 4.92 0 0 1-3.5-1.3 4.83 4.83 0 0 1-1.42-3.63v-9.65h-3v-3h3v-5.29h3.24v5.28h4.22v3h-4.22v8.59a3.14 3.14 0 0 0 .67 2.34 2.18 2.18 0 0 0 1.51.61 3.24 3.24 0 0 0 .75-.09 3.87 3.87 0 0 0 .69-.23l1 2.89a8.7 8.7 0 0 1-2.94.48zm9.77-23.48a2.28 2.28 0 1 1-.67-1.62 2.2 2.2 0 0 1 .67 1.62zm-.67 5.95V145h-3.24v-17.28zm11.76 17.81a8.52 8.52 0 0 1-6.37-2.61 9.27 9.27 0 0 1-2.5-6.58 9.13 9.13 0 0 1 2.5-6.58 8.52 8.52 0 0 1 6.37-2.61 7.9 7.9 0 0 1 7.59 5l-3 1.23a4.87 4.87 0 0 0-4.82-3.24 5 5 0 0 0-3.84 1.8 7 7 0 0 0 0 8.85 5 5 0 0 0 3.84 1.8 5.07 5.07 0 0 0 5-3.24l2.89 1.23a7.73 7.73 0 0 1-3 3.64 8.43 8.43 0 0 1-4.66 1.31zm23.51-5.35a4.67 4.67 0 0 1-2 3.79 7.79 7.79 0 0 1-5 1.55 7.88 7.88 0 0 1-4.58-1.35 7.47 7.47 0 0 1-2.79-3.57l2.89-1.23a5.35 5.35 0 0 0 1.85 2.41 4.49 4.49 0 0 0 2.66.84 4.68 4.68 0 0 0 2.59-.67 1.89 1.89 0 0 0 1-1.59q0-1.65-2.53-2.43l-3-.74q-5-1.26-5-4.86a4.49 4.49 0 0 1 1.92-3.79 8.8 8.8 0 0 1 9-.33 5.93 5.93 0 0 1 2.59 2.92l-2.89 1.23a3.64 3.64 0 0 0-1.6-1.69 5 5 0 0 0-2.48-.62 4.16 4.16 0 0 0-2.27.63 1.83 1.83 0 0 0-1 1.55q0 1.48 2.78 2.11l2.61.67q5.25 1.26 5.25 5.17z" fill="#767677"/>
</svg>
