<svg id="Layer_1" xmlns="http://www.w3.org/2000/svg" viewBox="0 0 137.3 56">
  <path fill="#45535E" d="M7.3 12.3h4.3v9.5h9v-9.5h4.3v23.2h-4.3v-9.6h-9v9.6H7.3V12.3zm31 15.7c0 1.9-1.6 3.5-3.5 3.5s-3.5-1.6-3.5-3.5V18h-4v10c0 4.2 3.4 7.6 7.6 7.6 4.2 0 7.6-3.4 7.6-7.6V18h-4v10m15.1-9.9c-2 0-3.4.6-4.7 1.9v-7.7h-4v14.2c0 5.3 3.9 9 8.2 9 4.8 0 9-3.7 9-8.7-.1-4.9-4-8.7-8.5-8.7zm.1 13.7c-2.7 0-4.8-2.3-4.8-5s2.1-5 4.8-5c2.3 0 4.4 2.3 4.4 5s-2.1 5-4.4 5zm15.1-12.7c0-2 1.4-2.7 2.8-2.7 1.2 0 2.8.9 3.8 2l2.6-3.1c-1.3-1.8-4-3-6.2-3-4.4 0-7.6 2.5-7.6 6.8 0 7.8 9.7 5.4 9.7 9.7 0 1.4-1.3 2.5-2.8 2.5-2.4 0-3.2-1.2-4.3-2.4L64 32c1.9 2.3 4.2 3.5 7 3.5 4.2 0 7.5-2.6 7.5-6.6-.1-8.7-9.7-6-9.7-9.8m20.3-1.2c-4.3 0-8.2 3.6-8.2 9v14.3h4v-7.7c1.3 1.3 2.7 1.9 4.7 1.9 4.5 0 8.4-3.8 8.4-8.7.1-5.1-4.1-8.8-8.9-8.8zm.7 13.6c-2.7 0-4.8-2.3-4.8-5s2.1-5 4.8-5c2.3 0 4.4 2.3 4.4 5 0 2.8-2.1 5-4.4 5zm38.1.3c-2.4 0-3.1-1-3.1-2.6v-7h3.7v-3.5h-3.7V14l-4.1 1.8V30c0 3.6 2.5 5.5 6 5.5.5 0 1.2 0 1.6-.1l1-3.7c-.4 0-.9.1-1.4.1"/>
  <path fill="#F8761F" d="M117.2 22.4c-.8-1.3-1.9-2.4-3.2-3.2-1-.6-2.1-1-3.3-1.1v-4.2c1.2-.5 1.9-1.6 1.9-2.9 0-1.8-1.4-3.2-3.2-3.2-1.8 0-3.2 1.4-3.2 3.2 0 1.3.7 2.4 1.9 2.9V18c-1 .1-1.9.4-2.8.9-1.8-1.4-7.9-6-11.4-8.7 0-.3.1-.6.1-.9 0-2-1.6-3.6-3.6-3.6s-3.6 1.6-3.6 3.6 1.6 3.6 3.6 3.6c.7 0 1.3-.2 1.8-.5l.7.6 10.3 7.4c-.5.5-1 1.1-1.5 1.7-.8 1.3-1.3 2.7-1.3 4.3v.3c0 1.1.2 2.1.6 3.1.3.8.8 1.6 1.3 2.3L99 35.4c-1-.4-2.1-.1-2.9.6-.5.5-.8 1.2-.8 2 0 .7.3 1.4.8 2 .5.5 1.2.8 2 .8.7 0 1.4-.3 2-.8.5-.5.8-1.2.8-2 0-.3 0-.6-.1-.8l3.5-3.5c.5.3 1 .6 1.6.9 1.1.5 2.3.8 3.7.8h.2c1.5 0 2.9-.3 4.2-1.1 1.4-.7 2.5-1.8 3.3-3.1.8-1.3 1.3-2.8 1.3-4.4v-.1c-.2-1.6-.6-3-1.4-4.3zm-4.3 7.3c-1 1.1-2.1 1.7-3.3 1.7h-.2c-.7 0-1.4-.2-2.1-.6-.8-.4-1.3-1-1.8-1.7s-.8-1.5-.8-2.3v-.2c0-.8.2-1.5.5-2.3.4-.8 1-1.4 1.7-1.9s1.5-.7 2.4-.7h.1c.8 0 1.5.2 2.2.5.7.4 1.3.9 1.7 1.6.4.7.7 1.4.8 2.2v.5c.1 1.3-.3 2.3-1.2 3.2z"/>
</svg>
