<?xml version="1.0" encoding="utf-8"?>
<!-- Generator: Adobe Illustrator 26.3.1, SVG Export Plug-In . SVG Version: 6.00 Build 0)  -->
<svg version="1.1" id="Layer_1" xmlns="http://www.w3.org/2000/svg" xmlns:xlink="http://www.w3.org/1999/xlink" x="0px" y="0px"
	 viewBox="0 0 190.4 30.5" style="enable-background:new 0 0 190.4 30.5;" xml:space="preserve">
<style type="text/css">
	.st0{fill:#050225;}
	.st1{fill:#5D66E6;}
</style>
<g transform="translate(-75.227 -38.887)">
	<path class="st0" d="M75.2,42.4h5.3v26.6h-5.3V42.4z"/>
	<path class="st0" d="M98.9,57.4c0-3.4-1.9-5.2-4.7-5.2c-2.9,0-4.8,1.8-4.8,5.2v11.7h-5.3V47.9h5.3v2.6c1.5-1.9,3.9-3,6.4-2.9
		c4.9,0,8.4,3.2,8.4,9v12.4h-5.3V57.4z"/>
	<path class="st0" d="M116.7,47.6c5.3,0,8.8,2.7,10,7.5h-5.8c-0.6-1.8-2.3-3.1-4.2-2.9c-3,0-5,2.3-5,6.4s2,6.3,5,6.3
		c1.9,0.2,3.7-1,4.2-2.9h5.8c-1.1,4.5-4.7,7.5-10,7.5c-6.1,0-10.5-4.3-10.5-10.9S110.6,47.6,116.7,47.6z"/>
	<path class="st0" d="M138.1,69.4c-6.1,0-10.6-4.3-10.6-10.9c0-6.7,4.4-10.9,10.6-10.9c6.1,0,10.4,4.2,10.4,10.5
		c0,0.7,0,1.4-0.2,2.1h-15.5c0,2.7,2.3,4.9,5,4.9c0,0,0,0,0.1,0c1.8,0.1,3.5-0.9,4.2-2.6h5.8C146.8,66.3,143.3,69.4,138.1,69.4z
		 M133,56.5h10c-0.1-2.8-2.3-4.5-5-4.5C135.3,51.9,133.1,53.9,133,56.5L133,56.5z"/>
	<path class="st0" d="M165.5,57.4c0-3.4-1.9-5.2-4.7-5.2c-2.9,0-4.8,1.8-4.8,5.2v11.7h-5.3V47.9h5.3v2.6c1.5-1.9,3.9-3,6.4-2.9
		c4.9,0,8.4,3.2,8.4,9v12.4h-5.3L165.5,57.4L165.5,57.4z"/>
	<path class="st0" d="M182.5,47.6c2.7,0,5.2,1.2,6.9,3.3v-10h5.4v28.2h-5.4v-3.1c-1.6,2.3-4.2,3.6-6.9,3.5c-5.4,0-9.7-4.4-9.7-11
		S177.1,47.6,182.5,47.6z M183.9,52.3c-2.9,0-5.6,2.1-5.6,6.1s2.7,6.3,5.6,6.3c2.9,0,5.6-2.2,5.6-6.2S186.8,52.3,183.9,52.3z"/>
	<path class="st0" d="M198.4,47.9h5.3v21.1h-5.3V47.9z"/>
	<path class="st0" d="M227.2,69.1h-5.4v-2.7c-1.5,1.9-3.9,3-6.3,2.9c-4.9,0-8.5-3.2-8.5-9V47.9h5.3v11.6c0,3.4,1.9,5.2,4.7,5.2
		c2.9,0,4.7-1.8,4.7-5.2V47.9h5.4L227.2,69.1L227.2,69.1z"/>
	<path class="st0" d="M260.3,57.4c0-3.4-1.9-5.1-4.7-5.1c-2.9,0-4.7,1.8-4.7,5.1v11.7h-5.3V57.4c0-3.4-1.9-5.1-4.7-5.1
		c-2.9,0-4.8,1.8-4.8,5.1v11.7h-5.3V47.9h5.3v2.6c1.5-1.9,3.8-2.9,6.2-2.9c3-0.2,5.9,1.4,7.4,4c1.5-2.5,4.3-4.1,7.2-4
		c5.1,0,8.7,3.2,8.7,9v12.4h-5.3L260.3,57.4L260.3,57.4z"/>
	<circle class="st1" cx="201" cy="42.2" r="3.3"/>
</g>
</svg>
