<svg id="Layer_1" xmlns="http://www.w3.org/2000/svg" viewBox="0 0 2500 642">
  <path fill="#1F8DED" d="M851.6 413.7V228.3c0-11.4 9.3-20.7 20.7-20.7s20.7 9.3 20.7 20.7v185.5c0 11.4-9.3 20.7-20.7 20.7-10.7-.1-20.7-9.4-20.7-20.8zm236.8 7.9l-89.9-143.4v135.5c0 11.4-9.3 20.7-20.7 20.7-11.4 0-20.7-9.3-20.7-20.7V234c0-15 12.1-27.8 27.8-27.8h1.4c9.3 0 18.5 5 23.5 12.8l89.2 141.2V226.8c0-11.4 9.3-20.7 20.7-20.7s20.7 9.3 20.7 20.7v179.8c0 15-12.1 27.8-27.8 27.8-9.9 0-19.2-4.3-24.2-12.8zm196.2-175.5v169.8c0 10.7-8.6 19.3-19.3 19.3h-2.9c-10.7 0-19.3-8.6-19.3-19.3V246.1h-47.8c-10.7 0-19.3-8.6-19.3-19.3 0-10.7 8.6-19.3 19.3-19.3H1333c10.7 0 19.3 8.6 19.3 19.3 0 10.7-8.6 19.3-19.3 19.3h-48.4zm100.6 169.8V225.4c0-10 8.6-18.5 18.5-18.5h124.8c10 0 18.5 8.6 18.5 18.5s-8.6 18.5-18.5 18.5h-102v52.8h87.7c10 0 18.5 8.6 18.5 18.5s-8.6 18.5-18.5 18.5h-87.7v62.1h102c10 0 18.5 8.6 18.5 18.5s-8.6 18.5-18.5 18.5h-124.8c-10 1.6-18.5-6.2-18.5-16.9zm336.7 6.4l-32.8-73.5h-50.6v65.6c0 11.4-9.3 20.7-20.7 20.7h-.7c-11.4 0-20.7-9.3-20.7-20.7V228.3c0-11.4 9.3-20.7 20.7-20.7h75.6c54.2 0 79.2 34.2 79.2 70.6 0 30.7-16.4 54.2-41.4 63.5l28.5 64.2c5.7 13.6-3.6 28.5-18.5 28.5-7.9 0-15.8-4.3-18.6-12.1zm-28.6-179.1h-54.2V311h54.9c23.5 0 37.1-12.1 37.1-33.5-.7-17.8-14.2-34.3-37.8-34.3zm275.4 168.4c-17.1 17.1-40.7 27.1-64.9 27.1s-47.1-7.8-64.2-25.7c-25-25-28.5-54.9-28.5-92s3.6-67.8 28.5-92c17.1-17.1 39.9-25.7 64.2-25.7s47.8 9.3 64.9 26.4c5.7 6.4 10.7 12.8 14.3 20.7 6.4 13.6-3.6 28.5-18.5 28.5-8.6 0-15.7-5-19.3-12.8-1.4-4.3-4.3-7.8-7.1-11.4-7.1-9.3-20-14.3-34.2-14.3-12.8 0-25.7 5.7-35 15-15.7 16.4-15.7 44.2-15.7 65.6 0 20.7 0 49.2 15.7 65.6 9.3 9.3 22.1 15 35 15 14.3 0 27.1-5 34.2-14.3 2.9-3.6 5.7-7.8 7.1-12.1 2.9-7.8 10.7-12.8 19.3-12.8 15 0 25 15 18.5 28.5-3.6 7.9-8.6 15-14.3 20.7zm221.8 1.4c-17.1 17.1-41.4 25.7-65.6 25.7s-47.8-8.6-65.6-25.7c-25-25-28.5-54.9-28.5-92s4.3-67.8 28.5-92c17.1-17.1 41.4-25.7 65.6-25.7 24.3 0 47.8 8.6 65.6 25.7 25 25 28.5 54.9 28.5 92 .8 37.1-3.5 67.8-28.5 92zm-29.2-156.9c-9.3-9.3-22.8-15-35.7-15-12.8 0-27.1 5.7-35.7 15-15.7 16.4-16.4 44.2-16.4 65.6 0 20.7.7 48.5 16.4 64.9 9.3 9.3 22.8 15 35.7 15 12.8 0 27.1-5.7 35.7-15 15.7-16.4 16.4-44.2 16.4-64.9 0-21.4-.7-49.9-16.4-65.6zm298.2 158.3v-142L2406 417.3c-2.9 8.6-11.4 14.3-20.7 14.3-9.3 0-17.1-5.7-20.7-14.3l-53.5-146.9v144.1c0 11.4-9.3 20-20 20-11.4 0-20-9.3-20-20V238.3c0-17.1 14.3-31.4 31.4-31.4h2.9c12.8 0 25 7.8 29.2 20.7l52.1 141.2 52.8-141.2c4.3-12.1 16.4-20.7 29.2-20.7 17.1 0 31.4 14.3 31.4 31.4v176.2c0 11.4-9.3 20-20 20-12.1-.1-20.6-8.6-20.6-20.1zM562.7 0H81.2C36.3 0 .6 35.7.6 79.9v481.5c0 44.9 35.7 80.6 80.6 80.6h481.5c44.2 0 79.9-35.7 79.9-79.9V80.6c0-44.9-35.7-80.6-79.9-80.6zM407.2 117.7c0-12.1 9.3-21.4 21.4-21.4s21.4 9.3 21.4 21.4v286c0 12.1-9.3 21.4-21.4 21.4s-21.4-9.3-21.4-21.4v-286zm-107-10.7c0-12.1 9.3-21.4 21.4-21.4S343 94.9 343 107v310.3c0 12.1-9.3 21.4-21.4 21.4s-21.4-9.3-21.4-21.4V107zm-107 10.7c0-12.1 9.3-21.4 21.4-21.4 12.1 0 21.4 9.3 21.4 21.4v286c0 12.1-9.3 21.4-21.4 21.4-12.1 0-21.4-9.3-21.4-21.4v-286zm-107 42.8c0-12.1 9.3-21.4 21.4-21.4s21.4 9.3 21.4 21.4v192.6c0 12.1-9.3 21.4-21.4 21.4s-21.4-9.3-21.4-21.4V160.5zm463.7 326.7c-3.6 2.9-82.7 69.2-228.3 69.2S96.9 490.1 93.3 487.2c-9.3-7.8-10-21.4-2.1-30 7.8-9.3 21.4-10 30-2.1 1.4 0 72 58.5 200.4 58.5 129.8 0 199.7-58.5 199.7-59.2 9.3-7.8 22.8-6.4 30 2.1 8.5 9.3 7.1 22.9-1.4 30.7zm7.1-134.1c0 12.1-9.3 21.4-21.4 21.4s-21.4-9.3-21.4-21.4V160.5c0-12.1 9.3-21.4 21.4-21.4s21.4 9.3 21.4 21.4v192.6z"/>
</svg>
