<svg id="Layer_1" data-name="Layer 1" xmlns="http://www.w3.org/2000/svg" viewBox="0 0 850 200">
  <path fill="#4651ff" d="M126.88 56.37a31 31 0 0 0-31 29.33 30.92 30.92 0 0 0 1.6 61.81h47.93a12.44 12.44 0 0 0 12.49-12.41V87.3a31 31 0 0 0-31.02-30.93zm-33.34 77.48a18.47 18.47 0 0 1-13.2-13.07 11.17 11.17 0 0 1-.3-1.88h13.5zm3.73.56v-29.28H110v29.29zm29.81 0H114.4V81.07h12.68zm17.3-2.67a2.66 2.66 0 0 1-2.64 2.7h-10.21V91.38h12.85zm94.76 15.96L216 120.76v26.94h-14.73V56.58H216v50.71l17-18.94h19.19l-24.15 25.93 29.74 33.42zm20.72-80.32c0-5.21 4.45-9 9.66-9s9.53 3.81 9.53 9-4.19 9-9.53 9-9.66-3.92-9.66-9zm2.29 21h14.74v59.32h-14.75zm23.25 40.76h13.85c0 4.07 3.56 7.88 9.79 7.88 5.85 0 9.66-2.67 9.66-6.48 0-3.3-2.54-4.83-7-5.85l-7.88-2c-13.34-3.56-16.78-10.68-16.78-18.17 0-9.28 9.15-17.41 22.11-17.41 10.55 0 22.5 5.21 22.37 18.55h-14.09c0-4.19-3.69-6.74-7.88-6.74-4.58 0-7.75 2.54-7.75 6.23 0 3 2.92 4.83 6.35 5.59l9.53 2.54c13.34 3.43 15.76 11.82 15.76 17.28 0 12.07-12.07 18.43-24.15 18.43-11.81.01-23.63-7.14-23.89-19.85zm53.12 0h13.85c0 4.07 3.56 7.88 9.79 7.88 5.85 0 9.66-2.67 9.66-6.48 0-3.3-2.54-4.83-7-5.85l-7.88-2c-13.34-3.56-16.78-10.68-16.78-18.17 0-9.28 9.15-17.41 22.11-17.41 10.55 0 22.5 5.21 22.37 18.55h-14.09c0-4.19-3.69-6.74-7.88-6.74-4.58 0-7.75 2.54-7.75 6.23 0 3 2.92 4.83 6.35 5.59l9.53 2.54c13.34 3.43 15.76 11.82 15.76 17.28 0 12.07-12.07 18.43-24.15 18.43-11.81.01-23.63-7.14-23.89-19.85zm150.37-14.74v33.3h-14.62v-32.16c0-9.53-5-14.23-11.82-14.23-8.52 0-13.85 6.35-13.22 17l-.13-.51v29.9h-14.73v-32.16c0-9.53-5-14.23-11.31-14.23-6.86 0-13.73 3.81-13.73 15.12v31.27h-14.74V88.35h14.74v10.17c2.16-7.52 10.3-11.44 17.67-11.44 8.64 0 15.76 4.07 19.19 11.69 4.7-9.41 14-11.69 20-11.69 14.81 0 22.7 10.04 22.7 27.32zm68.52 8.77h-45.88c1.65 8.26 8 12.46 16.78 12.46 6.48 0 12.58-2.54 16.14-7.37l9.79 7.5c-5.46 8.64-15.89 13.22-26.69 13.22-17.79 0-31.26-12.45-31.26-31 0-18.94 14.23-30.88 31.14-30.88s30.38 11.82 30.38 30.37a49.5 49.5 0 0 1-.4 5.7zM543 112.88c-.89-8.13-7.12-12.84-15.38-12.84-8 0-14.36 3.81-16.14 12.84zm55.33-12.71h-12.58v47.53H571v-47.53h-10.67V88.35H571V66.49h14.74v21.86h12.58zm49.83-11.06l-2.92 14a18.56 18.56 0 0 0-8.64-2.16c-9.66 0-15 9.41-15 26.05v20.7h-14.87V88.35h14.74v12.71c3.18-9.91 9.66-14 17-14a21.75 21.75 0 0 1 9.69 2.05zm5.43-21.73c0-5.21 4.45-9 9.66-9s9.53 3.81 9.53 9-4.19 9-9.53 9-9.66-3.92-9.66-9zm2.29 21h14.74v59.32h-14.74zM679 118c0-18.81 15.12-30.88 32.28-30.88a29.92 29.92 0 0 1 24.15 11.44l-10.55 8.26a17.57 17.57 0 0 0-13.34-6c-10.29 0-17.67 7.12-17.67 17.16s7.37 17.16 17.67 17.16a17.56 17.56 0 0 0 13.34-6l10.55 8.26a30.29 30.29 0 0 1-24.15 11.44c-17.15 0-32.28-12.07-32.28-30.84zm60.5 11.14h13.85c0 4.07 3.56 7.88 9.79 7.88 5.85 0 9.66-2.67 9.66-6.48 0-3.3-2.54-4.83-7-5.85l-7.88-2c-13.34-3.56-16.78-10.68-16.78-18.17 0-9.28 9.15-17.41 22.11-17.41 10.55 0 22.49 5.21 22.37 18.55h-14.09c0-4.19-3.69-6.74-7.88-6.74-4.58 0-7.75 2.54-7.75 6.23 0 3 2.92 4.83 6.35 5.59l9.53 2.54c13.34 3.43 15.76 11.82 15.76 17.28 0 12.07-12.07 18.43-24.15 18.43-11.81.01-23.63-7.14-23.89-19.85z"/>
</svg>
