<svg width="245.08" height="156.15" version="1.1" viewBox="0 0 494.9 162.02" xmlns="http://www.w3.org/2000/svg">
 <g transform="matrix(1.875 0 0 1.875 27.196 39.842)">
  <path d="m240.14 83.693a16.41 16.41 0 1 1-16.41-16.41 16.41 16.41 0 0 1 16.41 16.41m-16.41-8.22a8.22 8.22 0 1 0 8.22 8.22 8.22 8.22 0 0 0-8.22-8.22m-70.45 8.23a16.41 16.41 0 1 1-16.41-16.41 16.41 16.41 0 0 1 16.41 16.41m-16.41-8.22a8.22 8.22 0 1 0 8.22 8.22 8.22 8.22 0 0 0-8.22-8.22m-61.89-8.2a3.88 3.88 0 0 0-3.76 2.42 16.42 16.42 0 1 0 0 28 3.91 3.91 0 0 0 3.77 2.41 4 4 0 0 0 4.12-4.29v-24.27a4 4 0 0 0-4.12-4.29m-12.3 24.65a8.23 8.23 0 1 1 8.19-9v1.5a8.23 8.23 0 0 1-8.19 7.48m54.95-5.92a4.09 4.09 0 0 0-8.17 0 6 6 0 0 1-11.94 0v-10.49h9.64a4.1 4.1 0 0 0 0-8.2h-9.66v-2.79a4.09 4.09 0 0 0-8.17 0v2.82h-3.31a4.08 4.08 0 1 0 0 8.16h3.31v10.5a14.33 14.33 0 0 0 14.16 14.14 14.15 14.15 0 0 0 14.14-14.14m86.85 10.03v-14.75a14.12 14.12 0 0 0-24.2-9.7 14.11 14.11 0 0 0-24.18 9.74v14.71a4.09 4.09 0 0 0 8.17 0v-14.58a6 6 0 0 1 11.95 0v14.44a4.26 4.26 0 0 0 4.12 4.24 4.18 4.18 0 0 0 4-4.24v-14.44a6 6 0 0 1 11.95 0v14.58a4.08 4.08 0 1 0 8.16 0m-161.02-0.01v-14.76a14.12 14.12 0 0 0-24.21-9.68 14.1 14.1 0 0 0-24.17 9.73v14.71a4.08 4.08 0 0 0 8.16 0v-14.58a6 6 0 0 1 12 0v14.43a4.27 4.27 0 0 0 4.13 4.25 4.19 4.19 0 0 0 4-4.25v-14.43a6 6 0 0 1 11.94 0v14.58a4.08 4.08 0 1 0 8.16 0" fill="#3f4445"/>
  <g stroke-width="2.337">
   <path d="m209.09 10.086-0.49076-0.7712a1.6593 1.6593 0 0 1-0.2337-0.32718l-34.096-51.881-44.052 32.718 32.367 49.684 0.39729 0.63098 0.18696 0.25707a27.576 27.576 0 0 0 46.015-30.381" fill="#95c748"/>
   <path d="m76.936 24.528a27.576 27.576 0 1 0-27.576 27.576 27.576 27.576 0 0 0 27.576-27.576" fill="#35bfc0"/>
   <path d="m178.41-28.451a27.576 27.576 0 1 0-27.506 27.576 27.576 27.576 0 0 0 27.576-27.576" fill="#f38334"/>
   <path d="m150.9-0.87489a27.53 27.53 0 0 1-23.043-12.433l-21.033-29.586a27.506 27.506 0 0 0-46.903 0l-33.419 51.974a27.553 27.553 0 0 1 46.436 1.1919l21.874 30.591a27.506 27.506 0 0 0 44.402 0l0.21033-0.35055 1.5891-2.337 32.718-51.039a27.53 27.53 0 0 1-22.832 11.989m-125.1 11.054 0.60761-1.0049z" fill="#3152a0"/>
  </g>
 </g>
</svg>
