<svg xmlns="http://www.w3.org/2000/svg" viewBox="0 0 494.895 162.025">
  <g fill="#33547D">
    <circle cx="22.667" cy="140.525" r="21.5"/>
    <circle cx="100.277" cy="140.76" r="15.207"/>
    <circle cx="164.252" cy="140.76" r="6.904"/>
    <path d="M96.181 95.479c-3.78 0-6.58-2.939-6.58-6.58v-28c0-9.66-4.62-17.08-14.98-17.08s-16.66 7.98-16.66 17.221v27.859c0 3.641-2.52 6.58-6.58 6.58-3.92 0-6.58-2.939-6.58-6.58v-28c0-9.66-5.04-17.08-15.4-17.08-10.64 0-16.24 7.98-16.24 17.221v27.859c0 3.641-2.66 6.58-6.58 6.58C2.8 95.479 0 92.54 0 88.899v-49.7c0-3.92 2.52-6.72 6.58-6.72 4.48 0 6.58 3.08 6.58 6.72v4.48c3.78-7.42 11.48-11.76 19.74-11.76 10.08 0 17.64 5.04 21.42 12.46 5.46-8.4 13.44-12.46 23.38-12.46 16.94 0 25.06 11.62 25.06 28v28.979c-.001 3.642-2.659 6.581-6.579 6.581zm25.06-87.92c4.2 0 7.7 3.5 7.7 7.7s-3.5 7.7-7.7 7.7-7.7-3.5-7.7-7.7 3.5-7.7 7.7-7.7zm0 87.92c-3.92 0-6.58-2.939-6.58-6.58v-49.84c0-3.64 2.8-6.58 6.58-6.58 3.78 0 6.58 2.94 6.58 6.58v49.84c-.002 3.641-2.66 6.58-6.58 6.58zm43.677-40.32l16.66-20.72c1.12-1.26 2.52-1.96 4.34-1.96 3.64 0 6.02 2.38 6.02 5.74 0 1.26-.42 2.52-1.54 3.78l-18.34 21.84 18.62 21.979c.98 1.12 1.54 2.24 1.54 3.92 0 3.222-2.8 5.74-5.88 5.74-1.96 0-3.5-.7-4.62-2.102l-16.8-20.858-16.8 20.858c-1.12 1.399-2.66 2.102-4.62 2.102-3.08 0-5.88-2.521-5.88-5.74 0-1.68.56-2.8 1.54-3.92l18.62-21.979L139.438 42c-1.12-1.262-1.54-2.521-1.54-3.78 0-3.36 2.38-5.74 6.02-5.74 1.82 0 3.22.7 4.34 1.96l16.66 20.719zm71.82 40.881c-9.38 0-17.08-4.898-21.56-12.039v31.08c0 3.641-2.66 6.578-6.58 6.578s-6.58-2.938-6.58-6.578V39.059c0-3.64 2.24-6.58 6.3-6.58s6.44 3.08 6.44 6.72v4.762c4.2-7.28 12.6-12.04 21.98-12.04 16.1 0 29.26 13.438 29.26 32.06 0 19.318-13.16 32.059-29.26 32.059zm-2.659-53.2c-11.34 0-18.9 9.938-18.9 21.14s7.56 21.14 18.9 21.14 18.759-8.539 18.759-21.14c0-12.6-7.42-21.14-18.759-21.14zm101.359 46.059c0 3.641-2.52 6.58-6.58 6.58-3.92 0-6.438-2.939-6.438-6.58v-3.08c-3.92 5.88-11.34 10.221-20.438 10.221-19.604 0-30.941-14.279-30.941-32.061 0-17.5 12.602-32.06 32.34-32.06 20.16 0 32.061 13.16 32.061 32.06v24.92h-.004zm-32.2-45.78c-11.201 0-19.041 9.382-19.041 20.86 0 12.04 6.58 20.86 19.041 20.86 11.619 0 19.039-9.94 19.039-20.86 0-12.88-7.839-20.86-19.039-20.86zm71.821-11.198c16.939 0 29.398 12.88 29.398 29.26V88.9c0 3.642-2.939 6.58-6.58 6.58-3.639 0-6.58-2.938-6.58-6.58V59.64c0-8.82-7-15.68-16.238-15.68-9.24 0-16.102 6.858-16.102 15.68V88.9c0 3.642-2.939 6.58-6.58 6.58-3.639 0-6.58-2.938-6.58-6.58V61.18c0-16.38 12.32-29.259 29.262-29.259zm97.857 32.198c0 2.24-1.26 4.48-5.039 4.48h-41.859c.699 9.66 7.279 16.939 18.898 16.939 7.281 0 11.621-2.521 16.24-6.86 1.121-1.12 2.66-2.102 4.34-2.102 2.939 0 5.461 2.102 5.461 5.461 0 1.398-.701 2.658-1.68 3.778-5.32 6.16-14.842 10.222-24.92 10.222-20.861 0-31.922-14.562-31.922-32.062 0-18.34 13.301-32.06 31.359-32.06 17.644.006 29.122 14.284 29.122 32.204zm-29.119-21.698c-9.66 0-16.24 6.858-17.5 15.54h34.439c-1.119-8.402-7.42-15.54-16.939-15.54zm44.519 53.058c-3.922 0-6.58-2.939-6.58-6.58V6.581c0-3.642 2.66-6.58 6.58-6.58s6.578 2.938 6.578 6.58v82.318c.002 3.641-2.658 6.58-6.578 6.58z"/>
  </g>
</svg>
