<svg version="1.1" id="Layer_1" xmlns="http://www.w3.org/2000/svg" xmlns:xlink="http://www.w3.org/1999/xlink" x="0px" y="0px"
                         viewBox="0 0 476.6 197.2" style="enable-background:new 0 0 476.6 197.2;" xml:space="preserve">
                    <style type="text/css">
                        .st0{fill:#000000;}
                        .st1{fill:#47C5E7;}
                        .st2{fill:#D63C95;}
                        .st3{fill:#B5D33D;}
                        .st4{fill:#FFA61B;}
                    </style>
                    <g>
                        <g id="XMLID_1_">
                            <path class="st0" d="M229.7,155.4c-9.5,0-17.9-4.5-23.5-12.2v32.7c0,2.7-2.4,5.2-5.5,5.2c-2.9,0-5.3-2.4-5.3-5.2V88.5
                                c0-2.7,2.4-5.2,5.6-5.2c2.7,0,5.2,2.4,5.2,5.2v6c5-7.1,13.7-12.1,23.5-12.1c18.3,0,31,13.8,31,36.4
                                C260.7,141.3,248,155.4,229.7,155.4z M227,92.1c-8.5,0-17,5-20.7,11.1v31.4c3.7,6,12.2,11.2,20.7,11.2c14,0,22.3-11.5,22.3-26.9
                                S240.9,92.1,227,92.1z"/>
                            <path class="st0" d="M330.9,90.5l-32.3,77.3c-4.2,9.9-11.5,14.1-20.4,14.1c-3.7,0-8.5-0.3-8.5-4.9c0-2.9,2.3-4.9,4.8-4.9
                                c1.3,0,2.4,0.1,3.6,0.1c4.3,0.1,7.6-1.6,10.2-7.3l4.6-10.5l-26.5-63.9c-0.3-0.6-0.4-1.3-0.4-1.9c0-2.7,2.3-5.3,5.5-5.3
                                c2.2,0,4.2,1.2,5,3.3l22.2,54.6l22-54.6c0.9-2,2.9-3.3,5-3.3c3.2,0,5.6,2.4,5.6,5.3C331.4,89.2,331.2,89.9,330.9,90.5z"/>
                            <path class="st0" d="M387.2,153.7H342c-2.7,0-4.9-2.3-4.9-5.5c0-1.3,0.6-2.6,1.3-3.6l37.7-51h-34.6c-2.6,0-4.6-2-4.6-4.9
                                c0-2.6,2-4.6,4.6-4.6h44.6c2.4,0,4.8,2.2,4.8,5.3c0,1.3-0.4,2.4-1.2,3.5l-38.2,51.4h35.6c2.4,0,4.5,2,4.5,4.5
                                C391.7,151.7,389.7,153.7,387.2,153.7z"/>
                            <path class="st0" d="M459.5,122.4h-50.3c0.9,13.1,10.1,24,25.1,24c6.6,0,13.2-2.2,18.7-6.5c0.7-0.4,1.6-0.7,2.4-0.7
                                c1.9,0,4.3,1.7,4.3,4.5c0,7.5-18,11.7-26.5,11.7c-20.6,0-35.4-14.8-35.4-36.6c0-20.2,14.4-36.4,34.3-36.4
                                c17.3,0,28.7,10.9,32.3,26.9c0.4,2.2,1,4.8,1,7.2C465.4,119.7,462.8,122.4,459.5,122.4z M432,91.3c-14.8,0-22.2,12.5-22.8,23.2
                                h45.6C454.8,104.2,447.9,91.3,432,91.3z"/>
                        </g>
                        <g id="XMLID_67_">
                            <path id="XMLID_91_" class="st1" d="M118.5,105.9c1.4-5.1,3.3-9.8,5.5-14.3c20.9,0.3,40.3-5.5,48.6-15.9
                                c5.1-6.4,5.8-14.1,1.8-21.3l0-0.1c-4-7.1-11-10.7-19.1-9.7c-7.9,0.9-16.6,6-24.9,14.3c-2.8,2.8-5.4,5.8-7.8,9
                                c-2.3,3-4.5,6.2-6.5,9.5c0,0,0,0-0.1,0c-2.5,4.1-4.7,8.4-6.7,12.9c0,0,0.1,0,0.1,0c-1.6,3.8-3,7.8-4.2,11.7c-1.1,3.9-2,8-2.6,12
                                c4.5,1.9,8.8,4.1,12.9,6.5C116.2,115.9,117.1,110.9,118.5,105.9z M156.9,58.3c1-0.1,1.8-0.1,2.5,0.1c1.2,0.4,2.2,1.2,3,2.7
                                c1.2,2.3,1.1,4-0.6,6.1c-4.4,5.5-15.8,9.5-29.5,10.6C140.9,66.2,150.6,59.1,156.9,58.3z"/>
                            <path id="XMLID_87_" class="st2" d="M70.1,92c-1.4,5.1-3.3,9.8-5.5,14.3c-20.9-0.3-40.3,5.5-48.6,15.9c-5.1,6.4-5.8,14.1-1.8,21.3
                                l0,0.1c4,7.1,11,10.7,19.1,9.7c7.9-0.9,16.6-6,24.9-14.3c2.8-2.8,5.4-5.8,7.8-9c2.3-3,4.5-6.2,6.5-9.5c0,0,0,0,0.1,0
                                c2.5-4.1,4.7-8.4,6.7-12.9c0,0-0.1,0-0.1,0c1.6-3.8,3-7.8,4.2-11.7c1.1-3.9,2-8,2.6-12c-4.5-1.9-8.8-4.1-12.9-6.5
                                C72.4,82,71.5,87,70.1,92z M31.7,139.6c-1,0.1-1.8,0.1-2.5-0.1c-1.2-0.4-2.2-1.2-3-2.7c-1.2-2.3-1.1-4,0.6-6.1
                                c4.4-5.5,15.8-9.5,29.5-10.6C47.7,131.7,37.9,138.8,31.7,139.6z"/>
                            <path id="XMLID_83_" class="st3" d="M87.3,123.2c5.1,1.4,9.8,3.3,14.3,5.5c-0.3,20.9,5.5,40.3,15.9,48.6
                                c6.4,5.1,14.1,5.8,21.3,1.8l0.1,0c7.1-4,10.7-11,9.7-19.1c-0.9-7.9-6-16.6-14.3-24.9c-2.8-2.8-5.8-5.4-9-7.8
                                c-3-2.3-6.2-4.5-9.5-6.5c0,0,0,0,0-0.1c-4.1-2.5-8.4-4.7-12.9-6.7c0,0,0,0.1,0,0.1c-3.8-1.6-7.8-3-11.7-4.2c-3.9-1.1-8-2-12-2.6
                                c-1.9,4.5-4.1,8.8-6.5,12.9C77.4,120.9,82.3,121.8,87.3,123.2z M134.9,161.6c0.1,1,0.1,1.8-0.1,2.5c-0.4,1.2-1.2,2.2-2.7,3
                                c-2.3,1.2-4,1.1-6.1-0.6c-5.5-4.4-9.5-15.8-10.6-29.5C127,145.6,134.2,155.3,134.9,161.6z"/>
                            <path id="XMLID_68_" class="st4" d="M101.2,74.7c-5.1-1.4-9.8-3.3-14.3-5.5c0.3-20.9-5.5-40.3-15.9-48.6
                                c-6.4-5.1-14.1-5.8-21.3-1.8l-0.1,0c-7.1,4-10.7,11-9.7,19.1c0.9,7.9,6,16.6,14.3,24.9c2.8,2.8,5.8,5.4,9,7.8
                                c3,2.3,6.2,4.5,9.5,6.5c0,0,0,0,0,0.1c4.1,2.5,8.4,4.7,12.9,6.7c0,0,0-0.1,0-0.1c3.8,1.6,7.8,3,11.7,4.2c3.9,1.1,8,2,12,2.6
                                c1.9-4.5,4.1-8.8,6.5-12.9C111.2,77,106.2,76.1,101.2,74.7z M53.6,36.3c-0.1-1-0.1-1.8,0.1-2.5c0.4-1.2,1.2-2.2,2.7-3
                                c2.3-1.2,4-1.1,6.1,0.6C68,35.6,72,47,73,60.8C61.5,52.3,54.4,42.5,53.6,36.3z"/>
                        </g>
                    </g>
                    </svg>    