<?xml version="1.0" encoding="utf-8"?>
<!-- Generator: Adobe Illustrator 21.0.0, SVG Export Plug-In . SVG Version: 6.00 Build 0)  -->
<svg version="1.0" id="Layer_1" xmlns="http://www.w3.org/2000/svg" xmlns:xlink="http://www.w3.org/1999/xlink" x="0px" y="0px"
	 width="765px" height="359px" viewBox="0 0 765 359" enable-background="new 0 0 765 359" xml:space="preserve">
<g>
	<path d="M626.6,244.8c-8.5,3-16.4,5.7-24.3,8.7c-2.3,0.9-2.4-0.9-3.1-1.8c-12.4-17.6-24.8-35.2-37.2-52.8c-0.7-1.1-1.5-2.1-2.3-3.2
		c-1.3,0.9-0.8,2.1-0.8,3c0,16.7-0.1,33.3,0,50c0,2.7-0.7,3.4-3.4,3.3c-7.2-0.2-14.4-0.2-21.6,0c-2.2,0-3.1-0.4-3.1-2.9
		c0.1-50.6,0.1-101.2,0-151.8c0-2.6,0.8-3.2,3.2-3.1c7.2,0.2,14.4,0.2,21.6,0c2.5-0.1,3.2,0.6,3.1,3.1c-0.1,28.5-0.1,57.1,0,85.6
		c0,1.2-1,3,1,3.7c1.8,0.6,2.8-0.8,3.8-2c11-13,22-26,32.8-39.1c1.9-2.2,3.3-2.9,6.1-1.5c5.6,2.8,11.5,5.2,17.5,7.8
		c-11,12-21.6,23.8-32.5,35.4c-2.5,2.7-3,4.3-0.4,7.5C600.4,211.2,613.3,227.9,626.6,244.8z"/>
	<path d="M364.4,238.1c-3,2.7-5.3,5-7.9,7c-14.5,11.1-30.5,12.4-46.9,5.4c-11.7-5-16.2-15.5-17-27.4c-1.7-25.5-0.4-51-0.8-76.5
		c0-2.1,0.9-2.3,2.6-2.2c7.3,0.1,14.6,0.2,21.9,0c2.8-0.1,3.3,0.9,3.3,3.5c-0.1,18.9-0.2,37.9,0,56.8c0,4.9-0.1,9.8,0.9,14.6
		c2.6,12.5,11.4,17.4,22.8,15.9c13.8-1.8,20.9-11.2,21-27c0.1-19.9,0.1-39.8,0-59.7c0-3.1,0.6-4.3,4-4.2c7.1,0.3,14.1,0.2,21.2,0.1
		c2,0,2.7,0.6,2.7,2.6c-0.1,34.2-0.1,68.3,0,102.5c0,2-0.6,2.6-2.6,2.6c-7.7-0.1-15.3-0.1-23,0c-1.7,0-2.3-0.4-2.2-2.2
		C364.5,246.1,364.4,242.5,364.4,238.1z"/>
	<path d="M439.3,158.7c5.9-6.1,11.3-11,18.2-13.6c10.7-4.1,21.7-4.6,32.6-0.9c13.5,4.7,20,15.3,21,28.9c1.8,25.6,0.6,51.3,0.9,76.9
		c0,1.5-0.3,2.1-2,2.1c-8-0.1-16.1-0.1-24.1,0c-2.8,0.1-2-1.8-2-3.1c0-21.1,0-42.2,0-63.3c0-3.4-0.2-6.7-1.1-9.9
		c-3.6-12.9-13.1-16-24.8-13.9c-12.3,2.2-18.6,11.2-18.7,25.4c-0.1,20.4-0.1,40.8,0,61.1c0,2.9-0.6,3.8-3.6,3.7
		c-7.3-0.3-14.6-0.2-21.9,0c-2,0-2.6-0.5-2.6-2.6c0.1-34,0.1-68.1,0-102.1c0-2.3,0.7-2.8,2.8-2.7c7.5,0.1,15.1,0.2,22.7,0
		c2.4-0.1,2.8,0.8,2.7,2.9C439.1,150.8,439.3,154.2,439.3,158.7z"/>
	<path d="M246,173.1c0-25.2,0-50.4-0.1-75.6c0-2.6,0.5-3.5,3.3-3.4c7.3,0.2,14.6,0.1,21.9,0c2,0,2.6,0.5,2.6,2.6
		c-0.1,50.9-0.1,101.7,0,152.6c0,2.4-0.8,2.7-2.9,2.6c-7.1-0.1-14.2-0.2-21.2,0c-2.9,0.1-3.8-0.6-3.8-3.7
		C246.1,223.2,246,198.2,246,173.1z"/>
	<path d="M100.7,163.9c-6.4-4.2-13-6.8-20.7-5.6c-4.4,0.7-8,2.8-9.5,7.2c-1.5,4.4,0,8.2,3.2,11.4c6.7,6.7,14.7,11.9,21.9,18
		c2.1,1.8,4.1,3.7,6.2,5.5c16.3,14.3,12.2,43.6-13.2,51.5c-17.5,5.4-34.1,3.3-49.2-7.8c-2-1.4-2.2-2.5-0.8-4.5
		c2.3-3.3,4.4-6.8,6.3-10.4c1-1.8,1.6-1.8,3.1-0.5c5.6,4.6,11.5,8.6,19,9.2c8.7,0.8,15.4-3.6,16.6-11.2c0.9-5.9-1.7-10.5-6.1-14.1
		c-5.3-4.4-10.9-8.5-16.4-12.8c-5.9-4.6-11.6-9.3-15.1-16.1c-7.6-14.7-0.4-32.7,16.2-38.8c15.6-5.8,30.7-3.5,45.1,4.7
		c1.2,0.7,1.7,1.2,0.8,2.6C105.5,156,103.2,160,100.7,163.9z"/>
	<path fill="#73AF37" d="M650.8,248.6c0-5.7,0.1-10.5-0.1-15.3c-0.1-2.2,0.8-3.1,2.6-4c19.3-9.7,38.6-19.5,57.9-29.2
		c0.9-0.4,1.7-0.8,2.5-1.3c1.6-0.9,1.6-1.9,0-2.9c-0.8-0.5-1.7-0.9-2.5-1.3c-19.1-9.6-38.2-19.2-57.4-28.6c-2.2-1.1-3.2-2.3-3.1-4.9
		c0.2-4.8,0.1-9.6,0.1-14.9c3.9,1.9,7.4,3.6,10.9,5.4c17.1,8.8,34.2,17.5,51.3,26.3c6.5,3.3,12.9,6.7,19.4,10
		c1.5,0.7,2.1,1.6,2.1,3.3c-0.1,4-0.2,7.9,0,11.9c0.1,2.2-0.7,3.4-2.7,4.4c-21,10.5-42,21.1-63,31.8
		C662.9,242.1,657.2,245.2,650.8,248.6z"/>
	<path d="M227.3,166.6c-14-30-53.3-32.1-71.7-11.4c-1.2,1.3-2.6,2.5-4.5,4.4c0-4.6-0.1-8.4,0-12.2c0.1-2.2-0.5-2.9-2.8-2.8
		c-7.2,0.1-14.4,0.2-21.6,0c-2.2,0-2.8,0.6-2.8,2.8c0.1,51.9,0.1,103.9,0,155.8c0,2.5,0.9,2.9,3,2.8c7-0.1,13.9-0.2,20.9,0
		c2.9,0.1,3.2-1,3.2-3.5c-0.1-20-0.1-40.1-0.1-60.1c0-1.3,0-2.6,0-4.8c1.4,1.5,2.1,2.3,2.9,3.1c4.4,4.6,9,8.9,15.1,11.3
		c16.7,6.7,38.9,0.7,50.7-14.5C236.6,215.5,238.8,191.2,227.3,166.6z M204.7,196.5c-0.4,9.9-1.7,19.6-6.5,28.7
		c-9.7,18.3-32.7,15.2-40.9,0.8c-5.6-9.8-6.8-20.5-6.2-31.5c0.4-7.7,1.9-15.1,5.5-22c7.9-14.8,26.1-18.6,37.5-7.8
		c6.2,5.9,8.7,13.6,9.9,21.7C204.3,189.8,204.9,193.2,204.7,196.5z"/>
</g>
</svg>
