<svg xmlns="http://www.w3.org/2000/svg" data-name="Layer 1" viewBox="0 0 186.2 200">
  <path fill="#b3b3b3" d="M93.1 0L0 33.2l14.2 123.1L93.1 200l78.9-43.7 14.2-123.1L93.1 0z"/>
  <path fill="#ff9d40" d="M93.1 7.25L6.11 38.13l9.53 82.2 1.14 9.87 2.6 22.41 73.72 40.64 73.72-40.64 13.27-114.48L93.1 7.25z"/>
  <path fill="#d98636" d="M93.1 7.25V27.9v-.1 165.45l73.72-40.64 13.27-114.48L93.1 7.25z"/>
  <path fill="#ff7c00" d="M17.52 136.57l56.81-46.01 37.12 29.46 64.87-49.73-9.5 82.32-73.72 40.64-73.72-40.64-1.86-16.04z"/>
  <path fill="#d96a00" d="M93.1 193.25l73.72-40.64 9.79-84.74-65.16 52.15-18.35-18.49v9.38"/>
  <path fill="#fff" d="M73.78 78.07l-57.43 48.4 1.17 10.1 56.81-46.01 37.12 29.46 65.16-52.15 1.29-10.89-66.24 51.31-37.88-30.22z"/>
  <path fill="#d9d9d9" d="M93.1 105.45V93.48l18.56 14.81 66.24-51.31-1.58 13.31-64.87 49.73"/>
</svg>
